<svg id="svg" version="1.1" xmlns="http://www.w3.org/2000/svg" xmlns:xlink="http://www.w3.org/1999/xlink" width="140" height="50" viewBox="0, 0, 400,165.96078431372547"><g id="svgg"><path id="path0" d="M33.037 0.348 C 31.607 1.067,31.448 1.692,30.758 9.333 C 30.431 12.954,30.120 16.198,30.067 16.542 C 30.014 16.885,29.996 17.170,30.027 17.174 C 30.058 17.178,31.520 17.348,33.275 17.552 L 36.466 17.923 36.661 16.420 C 36.769 15.593,36.894 14.579,36.939 14.167 C 36.985 13.754,37.055 13.316,37.095 13.194 C 37.135 13.071,37.212 12.359,37.266 11.610 C 37.320 10.862,37.545 8.912,37.766 7.277 C 38.305 3.281,38.293 2.643,37.663 1.544 C 36.811 0.059,34.699 -0.488,33.037 0.348 M12.722 0.521 C 10.742 0.976,9.907 2.802,10.406 5.583 C 10.537 6.317,10.719 7.442,10.809 8.083 C 10.976 9.275,12.616 17.935,12.737 18.266 C 12.788 18.408,18.673 17.609,18.954 17.422 C 18.975 17.408,18.925 16.952,18.843 16.407 C 18.762 15.862,18.656 14.929,18.609 14.333 C 18.265 9.984,16.978 2.742,16.398 1.889 C 15.553 0.648,14.263 0.168,12.722 0.521 M215.953 9.128 C 212.262 11.250,213.599 16.530,217.833 16.553 C 220.247 16.567,221.667 15.121,221.667 12.649 C 221.667 9.477,218.616 7.596,215.953 9.128 M295.248 9.068 C 293.622 9.890,292.965 11.356,293.247 13.528 C 293.724 17.191,299.417 17.719,300.751 14.224 C 302.081 10.741,298.525 7.409,295.248 9.068 M175.167 33.000 L 175.167 56.000 178.167 56.000 L 181.167 56.000 181.178 45.792 C 181.191 34.622,181.199 34.408,181.667 32.833 C 184.031 24.882,195.535 24.028,199.053 31.543 C 199.973 33.508,200.000 33.906,200.000 45.408 L 200.000 56.000 202.925 56.000 L 205.850 56.000 205.788 44.375 C 205.747 36.696,205.664 32.524,205.544 32.083 C 205.444 31.717,205.320 31.079,205.268 30.667 C 205.162 29.831,203.927 27.230,203.213 26.340 C 202.390 25.314,200.954 23.833,200.782 23.833 C 200.690 23.833,200.363 23.641,200.054 23.406 C 197.427 21.402,192.024 20.604,188.120 21.644 C 186.761 22.005,184.000 23.261,184.000 23.517 C 184.000 23.600,183.901 23.667,183.780 23.667 C 183.465 23.667,182.207 24.781,181.645 25.557 L 181.167 26.217 181.167 18.108 L 181.167 10.000 178.167 10.000 L 175.167 10.000 175.167 33.000 M75.583 12.163 C 70.276 12.798,66.730 14.947,64.532 18.860 C 63.578 20.559,63.197 25.691,63.870 27.794 C 64.024 28.277,64.149 28.689,64.147 28.711 C 64.030 30.027,67.581 33.478,69.940 34.342 C 73.093 35.495,75.100 36.153,76.500 36.493 C 79.696 37.267,81.816 38.031,83.638 39.063 C 87.980 41.524,87.649 48.109,83.073 50.339 C 77.329 53.137,70.827 50.684,69.583 45.250 L 69.392 44.417 66.257 44.371 L 63.123 44.326 63.239 45.501 C 63.302 46.147,63.501 47.102,63.680 47.623 C 63.860 48.144,64.039 48.750,64.079 48.970 C 64.368 50.567,68.203 54.234,70.450 55.063 C 75.070 56.768,79.876 57.002,83.750 55.712 C 84.483 55.467,85.177 55.251,85.291 55.232 C 86.465 55.031,89.970 52.189,90.714 50.833 C 90.991 50.329,91.265 49.879,91.324 49.833 C 91.587 49.627,92.375 47.557,92.607 46.460 C 93.567 41.940,91.775 37.367,88.088 34.929 C 86.805 34.080,80.398 31.667,79.428 31.667 C 78.896 31.667,74.950 30.300,73.417 29.584 C 69.809 27.901,68.448 24.377,70.118 21.040 C 72.317 16.643,80.081 15.848,83.800 19.639 C 85.108 20.973,85.140 21.023,85.535 22.336 L 85.885 23.500 89.131 23.500 L 92.376 23.500 92.264 22.503 C 91.495 15.707,84.128 11.141,75.583 12.163 M112.820 21.327 C 108.387 21.892,102.937 25.264,101.530 28.311 C 101.376 28.644,101.196 28.957,101.131 29.006 C 101.065 29.056,100.710 29.739,100.342 30.524 C 97.886 35.765,98.096 43.316,100.832 48.144 C 101.199 48.793,101.500 49.369,101.500 49.424 C 101.500 49.924,104.343 52.884,105.834 53.936 C 112.400 58.569,122.533 57.134,127.029 50.933 L 127.500 50.283 127.500 53.142 L 127.500 56.000 130.417 56.000 L 133.333 56.000 133.333 38.917 L 133.333 21.833 130.417 21.833 L 127.500 21.833 127.500 24.589 L 127.500 27.346 126.458 26.214 C 124.947 24.573,124.366 24.055,123.599 23.665 C 123.224 23.474,122.618 23.137,122.252 22.917 C 120.106 21.620,115.978 20.925,112.820 21.327 M152.417 21.288 C 150.303 21.488,147.948 22.244,146.478 23.194 C 145.934 23.546,145.435 23.833,145.369 23.833 C 144.868 23.834,142.731 26.484,142.200 27.763 C 140.189 32.609,142.842 37.765,148.373 39.756 C 151.395 40.844,155.803 42.167,156.407 42.167 C 156.568 42.167,156.936 42.272,157.225 42.401 C 157.514 42.529,158.189 42.828,158.725 43.066 C 164.254 45.511,161.673 51.513,155.083 51.533 C 150.888 51.545,147.754 49.491,147.089 46.292 L 146.994 45.833 143.997 45.833 C 140.551 45.833,140.863 45.608,141.254 47.819 C 143.054 57.997,162.114 60.058,166.738 50.574 C 168.225 47.525,167.861 44.208,165.747 41.534 C 164.703 40.213,164.240 39.870,161.976 38.737 C 160.984 38.241,156.844 36.833,156.376 36.833 C 155.808 36.833,152.368 35.683,151.000 35.036 C 144.878 32.138,147.469 26.015,154.666 26.371 C 158.261 26.549,160.500 28.368,161.238 31.708 L 161.340 32.167 164.342 32.167 L 167.345 32.167 167.242 31.292 C 166.451 24.580,160.447 20.529,152.417 21.288 M243.666 21.414 C 241.631 21.820,238.232 23.551,237.376 24.618 C 237.171 24.874,236.779 25.346,236.506 25.667 L 236.009 26.250 236.004 24.042 L 236.000 21.833 233.000 21.833 L 230.000 21.833 230.000 38.917 L 230.000 56.000 232.991 56.000 L 235.982 56.000 236.037 45.208 L 236.092 34.417 236.481 33.250 C 237.367 30.594,237.768 29.977,239.757 28.208 C 242.456 25.808,248.348 25.825,251.083 28.240 C 252.914 29.856,253.533 30.863,254.210 33.324 C 254.541 34.525,254.560 35.080,254.626 45.292 L 254.696 56.000 257.588 56.000 L 260.480 56.000 260.547 45.292 L 260.614 34.583 261.020 33.162 C 263.234 25.416,273.998 23.789,277.628 30.652 C 279.101 33.437,279.055 32.986,279.126 45.208 L 279.188 56.000 282.102 56.000 L 285.015 56.000 284.961 44.292 C 284.900 30.931,284.954 31.477,283.381 28.333 C 282.495 26.563,282.449 26.496,281.167 25.115 C 277.122 20.757,268.755 19.841,263.726 23.205 C 263.346 23.459,262.968 23.667,262.886 23.667 C 262.425 23.667,259.938 26.482,259.307 27.717 L 258.954 28.411 258.559 27.546 C 258.197 26.754,255.498 23.667,255.166 23.667 C 255.095 23.667,254.525 23.367,253.899 23.002 C 251.137 21.388,247.009 20.747,243.666 21.414 M214.833 38.917 L 214.833 56.000 217.833 56.000 L 220.833 56.000 220.833 38.917 L 220.833 21.833 217.833 21.833 L 214.833 21.833 214.833 38.917 M294.000 38.917 L 294.000 56.000 297.000 56.000 L 300.000 56.000 300.000 38.917 L 300.000 21.833 297.000 21.833 L 294.000 21.833 294.000 38.917 M118.637 26.753 C 125.804 28.443,129.761 37.780,126.242 44.696 C 126.017 45.138,125.647 45.867,125.419 46.315 C 124.964 47.209,122.696 49.438,121.797 49.873 C 117.656 51.881,114.493 51.878,110.352 49.864 C 109.097 49.253,107.091 47.028,106.269 45.333 C 101.430 35.354,108.713 24.414,118.637 26.753 M28.166 38.691 C 28.166 38.815,27.980 40.904,27.752 43.333 C 27.523 45.762,27.336 47.788,27.335 47.833 C 27.333 47.896,23.333 47.967,23.333 47.904 C 23.333 47.571,21.996 38.774,21.936 38.714 C 21.877 38.655,16.662 39.448,16.586 39.528 C 16.557 39.558,16.867 41.308,17.276 43.417 C 17.684 45.525,18.080 47.570,18.155 47.960 C 18.285 48.638,18.271 48.675,17.854 48.765 C 16.169 49.127,11.374 50.673,10.917 51.001 C 10.825 51.067,10.037 51.483,9.167 51.925 C 7.354 52.845,5.808 53.838,5.083 54.547 C 4.808 54.816,4.307 55.214,3.969 55.430 C 3.632 55.647,3.144 56.096,2.886 56.428 C 2.628 56.761,2.128 57.382,1.775 57.808 C 1.423 58.234,0.881 59.102,0.571 59.737 L 0.008 60.891 0.002 73.599 L -0.004 86.308 0.659 87.589 C 1.024 88.293,1.662 89.233,2.078 89.678 C 2.493 90.122,2.833 90.563,2.833 90.658 C 2.833 90.753,3.415 91.259,4.125 91.782 C 4.835 92.305,5.492 92.822,5.583 92.930 C 6.180 93.636,11.880 96.502,12.612 96.464 C 12.871 96.451,13.908 96.584,14.917 96.761 C 26.573 98.797,41.849 92.760,45.035 84.858 C 45.404 83.943,45.417 83.717,45.499 76.805 L 45.583 69.694 46.879 68.588 C 49.510 66.344,50.879 64.048,50.916 61.818 C 50.928 61.103,50.886 60.551,50.823 60.590 C 50.760 60.629,50.609 60.306,50.488 59.872 C 50.072 58.378,48.385 56.270,46.351 54.701 C 45.673 54.178,44.945 53.615,44.733 53.450 C 44.271 53.090,42.660 52.218,40.486 51.152 C 38.974 50.411,35.611 49.282,33.417 48.780 C 32.740 48.625,32.428 48.475,32.451 48.317 C 32.471 48.188,32.599 47.221,32.737 46.167 C 32.875 45.112,33.141 43.130,33.328 41.761 C 33.730 38.829,33.971 39.127,30.966 38.848 C 29.660 38.727,28.496 38.591,28.379 38.546 C 28.262 38.501,28.167 38.566,28.166 38.691 M31.743 50.816 C 38.649 52.052,45.717 56.117,47.570 59.919 C 51.074 67.108,34.443 75.355,20.667 73.260 C 10.829 71.763,2.313 65.910,3.184 61.244 C 4.494 54.233,19.737 48.667,31.743 50.816 M16.315 59.234 C 14.115 60.961,13.994 62.547,15.928 64.315 C 20.205 68.224,28.744 68.706,33.997 65.336 C 35.117 64.616,35.142 64.645,32.625 63.771 C 31.410 63.349,29.104 62.548,27.500 61.991 C 23.872 60.730,17.351 58.500,17.293 58.500 C 17.269 58.500,16.829 58.830,16.315 59.234 M64.542 86.935 C 64.377 87.009,64.333 91.519,64.333 108.681 L 64.333 130.333 67.333 130.333 L 70.333 130.333 70.333 121.583 L 70.333 112.833 73.595 112.833 C 76.929 112.833,77.333 112.907,77.333 113.515 C 77.333 113.627,77.937 114.685,78.674 115.865 C 79.411 117.045,80.063 118.140,80.121 118.297 C 80.247 118.633,80.987 119.892,81.776 121.112 C 82.083 121.587,82.484 122.299,82.667 122.696 C 82.851 123.092,83.449 124.129,83.998 125.000 C 84.547 125.871,85.214 127.036,85.480 127.590 C 85.746 128.143,86.073 128.686,86.206 128.797 C 86.339 128.908,86.584 129.299,86.750 129.666 L 87.051 130.333 90.609 130.333 C 92.950 130.333,94.167 130.274,94.167 130.161 C 94.167 129.983,93.675 129.149,93.484 129.000 C 93.424 128.954,93.221 128.579,93.030 128.167 C 92.840 127.754,92.287 126.798,91.801 126.041 C 91.315 125.284,90.468 123.897,89.920 122.958 C 89.372 122.018,88.834 121.156,88.724 121.042 C 88.614 120.928,88.330 120.440,88.092 119.959 C 87.854 119.477,87.177 118.333,86.587 117.417 C 85.998 116.500,85.362 115.421,85.174 115.020 C 84.986 114.618,84.531 113.848,84.162 113.308 C 83.715 112.652,83.563 112.305,83.704 112.262 C 86.327 111.474,88.099 110.618,89.411 109.507 C 89.957 109.044,90.473 108.534,90.556 108.374 C 90.640 108.214,90.800 108.008,90.913 107.916 C 94.248 105.195,94.468 95.965,91.291 92.090 C 89.738 90.195,89.286 89.858,86.351 88.413 C 83.501 87.009,83.164 86.970,73.333 86.902 C 68.612 86.869,64.656 86.884,64.542 86.935 M174.167 91.833 L 174.167 96.167 172.000 96.167 L 169.833 96.167 169.833 98.583 L 169.833 101.000 171.993 101.000 L 174.154 101.000 174.207 112.375 C 174.266 125.134,174.224 124.666,175.508 126.827 C 177.133 129.562,179.296 130.333,185.344 130.333 L 189.000 130.333 189.000 127.849 L 189.000 125.365 185.958 125.302 C 182.948 125.240,181.167 124.876,181.167 124.325 C 181.167 124.251,181.061 124.085,180.933 123.957 C 180.198 123.222,180.167 122.720,180.167 111.578 L 180.167 101.000 184.583 101.000 L 189.000 101.000 189.000 98.583 L 189.000 96.167 184.583 96.167 L 180.167 96.167 180.167 91.833 L 180.167 87.500 177.167 87.500 L 174.167 87.500 174.167 91.833 M383.167 91.828 L 383.167 96.157 380.958 96.203 L 378.750 96.250 378.704 98.625 L 378.658 101.000 380.912 101.000 L 383.167 101.000 383.167 111.803 C 383.167 118.465,383.232 122.984,383.338 123.594 C 384.234 128.751,386.763 130.333,394.110 130.333 L 397.833 130.333 397.833 127.849 L 397.833 125.365 394.792 125.296 C 388.862 125.161,389.190 125.949,389.174 111.792 L 389.162 101.000 393.498 101.000 L 397.833 101.000 397.833 98.583 L 397.833 96.167 393.500 96.167 L 389.167 96.167 389.167 91.833 L 389.167 87.500 386.167 87.500 L 383.167 87.500 383.167 91.828 M82.410 92.360 C 90.093 94.946,88.974 106.214,80.881 107.762 C 79.989 107.933,78.323 108.000,74.985 108.000 L 70.333 108.000 70.333 99.994 L 70.333 91.988 75.875 92.007 C 80.953 92.023,81.500 92.053,82.410 92.360 M114.417 95.679 C 112.392 95.958,109.907 96.764,107.864 97.802 C 107.197 98.142,104.487 100.397,104.265 100.798 C 104.178 100.955,103.746 101.548,103.306 102.117 C 98.003 108.964,99.351 121.504,105.999 127.167 C 106.591 127.671,107.158 128.158,107.258 128.250 C 107.619 128.578,110.455 129.870,111.583 130.220 C 116.832 131.847,124.349 130.655,127.667 127.668 C 129.242 126.250,130.500 124.976,130.500 124.799 C 130.500 124.698,130.677 124.383,130.893 124.099 C 131.572 123.208,132.833 120.463,132.833 119.875 C 132.833 119.715,132.086 119.669,129.625 119.677 L 126.417 119.688 125.833 120.883 C 121.756 129.237,108.196 126.733,106.504 117.313 L 106.209 115.667 119.678 115.667 C 129.580 115.667,133.178 115.616,133.264 115.477 C 133.467 115.149,133.399 109.316,133.180 108.174 C 132.802 106.208,131.739 103.614,130.907 102.625 C 130.683 102.359,130.500 102.028,130.500 101.890 C 130.500 101.546,127.974 99.113,126.753 98.281 C 123.773 96.251,118.436 95.125,114.417 95.679 M150.250 95.609 C 148.094 95.865,146.373 96.388,144.482 97.360 C 138.466 100.454,137.628 108.284,142.882 112.300 C 144.483 113.525,149.091 115.349,151.636 115.767 C 153.442 116.063,157.108 117.464,158.132 118.250 C 160.687 120.210,159.575 124.012,156.064 125.326 C 151.310 127.105,145.785 124.774,144.922 120.625 L 144.827 120.167 141.742 120.167 L 138.657 120.167 138.758 120.958 C 139.005 122.897,139.887 124.996,140.880 126.009 C 141.100 126.233,141.349 126.543,141.432 126.697 C 142.575 128.806,148.342 131.002,152.730 130.999 C 158.398 130.995,162.741 128.701,164.631 124.715 C 166.630 120.499,164.431 114.822,160.167 113.189 C 159.846 113.066,158.908 112.708,158.083 112.392 C 156.362 111.733,153.156 110.739,152.319 110.604 C 149.711 110.185,146.344 108.197,145.722 106.709 C 144.397 103.537,147.214 100.753,151.750 100.751 C 156.013 100.749,158.260 102.375,159.073 106.045 L 159.175 106.508 162.129 106.462 L 165.083 106.417 165.034 105.583 C 164.653 99.208,157.961 94.694,150.250 95.609 M207.417 95.676 C 205.964 95.872,204.247 96.381,202.833 97.034 C 202.237 97.309,201.521 97.641,201.241 97.771 C 199.146 98.743,195.072 103.634,194.735 105.583 C 194.719 105.675,194.512 106.388,194.276 107.167 C 192.574 112.776,193.586 120.208,196.589 124.156 C 196.998 124.695,197.333 125.199,197.333 125.277 C 197.333 125.355,197.615 125.672,197.958 125.982 C 198.302 126.292,198.947 126.885,199.391 127.300 C 205.431 132.937,217.319 131.856,221.708 125.270 L 222.165 124.583 222.166 127.458 L 222.167 130.333 225.167 130.333 L 228.167 130.333 228.167 113.250 L 228.167 96.167 225.171 96.167 L 222.175 96.167 222.129 98.942 L 222.083 101.716 221.417 100.823 C 218.608 97.060,212.850 94.944,207.417 95.676 M290.833 95.753 C 287.795 96.373,285.860 97.548,283.706 100.080 L 283.000 100.910 283.000 98.538 L 283.000 96.167 280.083 96.167 L 277.167 96.167 277.167 113.250 L 277.167 130.333 280.083 130.333 L 283.000 130.333 283.001 120.375 C 283.002 110.561,283.069 109.086,283.577 107.583 C 284.914 103.623,287.330 101.948,292.042 101.715 L 294.000 101.618 294.000 98.559 L 294.000 95.500 292.958 95.516 C 292.385 95.524,291.429 95.631,290.833 95.753 M311.833 95.742 C 308.867 96.230,305.745 97.636,304.000 99.271 C 303.679 99.572,303.185 100.027,302.902 100.284 C 302.355 100.779,301.333 102.055,301.333 102.243 C 301.333 102.305,301.154 102.594,300.935 102.886 C 297.345 107.669,297.416 118.807,301.068 123.657 C 301.306 123.973,301.500 124.332,301.500 124.456 C 301.500 125.504,305.918 128.855,308.909 130.076 C 314.848 132.499,322.783 130.273,326.625 125.106 L 327.000 124.602 327.000 127.468 L 327.000 130.333 330.000 130.333 L 333.000 130.333 333.000 113.250 L 333.000 96.167 330.000 96.167 L 327.000 96.167 326.998 98.958 L 326.996 101.750 326.540 101.170 C 323.184 96.906,317.503 94.809,311.833 95.742 M356.000 95.743 C 353.186 96.348,351.051 97.451,349.382 99.161 L 348.167 100.406 348.167 98.286 L 348.167 96.167 345.167 96.167 L 342.167 96.167 342.167 113.250 L 342.167 130.333 345.158 130.333 L 348.149 130.333 348.204 119.542 L 348.260 108.750 348.792 107.118 C 350.747 101.129,357.915 98.708,363.117 102.279 C 366.797 104.805,367.160 106.492,367.164 121.125 L 367.167 130.333 370.093 130.333 L 373.019 130.333 372.956 118.625 C 372.885 105.142,372.887 105.162,371.102 102.026 C 370.771 101.444,370.500 100.914,370.500 100.847 C 370.500 100.781,369.844 100.086,369.042 99.302 C 365.943 96.273,360.472 94.780,356.000 95.743 M237.210 107.958 C 237.245 114.444,237.329 119.975,237.396 120.250 C 239.047 127.002,243.883 130.806,250.917 130.888 C 254.983 130.936,259.944 128.916,261.239 126.685 C 261.769 125.773,261.833 125.933,261.833 128.155 L 261.833 130.333 264.833 130.333 L 267.833 130.333 267.833 113.250 L 267.833 96.167 264.833 96.167 L 261.833 96.167 261.830 106.208 C 261.828 111.731,261.759 116.700,261.675 117.250 C 261.592 117.800,261.476 118.550,261.418 118.917 C 260.581 124.161,253.002 127.484,248.000 124.800 C 246.572 124.034,245.167 122.919,245.167 122.552 C 245.167 122.432,245.104 122.333,245.028 122.333 C 244.952 122.333,244.783 122.127,244.653 121.875 C 244.523 121.623,244.335 121.330,244.235 121.224 C 244.136 121.117,243.836 120.405,243.569 119.640 L 243.083 118.250 243.036 107.208 L 242.989 96.167 240.068 96.167 L 237.146 96.167 237.210 107.958 M28.083 98.812 C 27.621 98.884,27.428 98.993,27.455 99.167 C 27.476 99.304,27.875 101.404,28.343 103.833 C 28.811 106.263,29.291 108.962,29.410 109.833 C 29.529 110.704,29.856 112.579,30.137 114.000 C 31.267 119.726,31.986 123.635,32.084 124.583 C 32.141 125.133,32.257 125.883,32.341 126.250 C 32.426 126.617,32.875 128.904,33.340 131.333 C 33.805 133.762,34.294 136.291,34.426 136.951 C 34.558 137.612,34.668 138.362,34.669 138.618 C 34.674 139.574,34.834 139.833,35.418 139.833 C 36.194 139.833,36.194 139.901,35.419 134.667 C 35.032 132.054,34.670 129.354,34.614 128.667 C 34.558 127.979,34.472 127.192,34.423 126.917 C 34.374 126.642,34.106 124.842,33.827 122.917 C 33.547 120.992,33.027 117.429,32.669 115.000 C 32.312 112.571,31.971 110.021,31.912 109.333 C 31.852 108.646,31.490 105.983,31.107 103.417 L 30.410 98.750 29.580 98.728 C 29.123 98.716,28.450 98.754,28.083 98.812 M22.924 99.042 C 22.887 99.156,22.738 100.600,22.592 102.250 C 22.446 103.900,22.139 107.237,21.909 109.667 C 21.680 112.096,21.452 114.908,21.403 115.917 C 21.319 117.641,20.974 121.686,20.421 127.417 C 19.173 140.355,19.172 140.387,20.031 140.302 L 20.565 140.250 20.859 138.250 C 21.021 137.150,21.200 135.612,21.257 134.833 C 21.314 134.054,21.763 130.492,22.254 126.917 C 23.408 118.529,23.491 117.912,23.598 116.917 C 23.648 116.458,23.723 115.979,23.764 115.852 C 23.806 115.725,23.886 114.975,23.942 114.186 C 23.998 113.396,24.469 109.658,24.988 105.880 C 25.760 100.254,25.889 98.993,25.702 98.921 C 25.215 98.734,22.990 98.831,22.924 99.042 M120.500 101.236 C 121.188 101.476,122.111 101.896,122.553 102.169 C 122.994 102.443,123.409 102.667,123.475 102.667 C 123.636 102.667,125.173 104.291,125.608 104.922 C 126.553 106.292,127.123 107.817,127.273 109.375 L 127.381 110.500 116.836 110.500 L 106.291 110.500 106.412 109.792 C 106.478 109.402,106.570 108.821,106.617 108.500 C 106.823 107.067,108.545 104.261,109.971 103.033 C 110.775 102.342,113.030 101.235,114.281 100.918 C 115.826 100.527,118.919 100.685,120.500 101.236 M213.657 101.175 C 214.732 101.473,216.367 102.226,217.641 103.009 C 219.096 103.904,221.111 107.137,221.697 109.514 C 224.357 120.317,215.176 129.014,205.882 124.495 C 204.497 123.822,202.502 122.324,202.497 121.952 C 202.496 121.841,202.318 121.583,202.104 121.380 C 201.362 120.677,200.121 118.115,199.933 116.898 C 199.438 113.695,199.437 112.928,199.922 109.417 C 200.023 108.686,201.265 106.037,201.870 105.264 C 204.747 101.584,209.359 99.984,213.657 101.175 M318.156 101.091 C 320.912 101.741,324.195 104.119,325.203 106.196 C 328.405 112.793,326.772 121.247,321.796 123.831 C 318.792 125.391,317.886 125.660,315.633 125.664 C 312.085 125.670,307.794 123.437,306.457 120.888 C 306.321 120.629,306.007 120.047,305.760 119.595 C 300.636 110.225,308.309 98.770,318.156 101.091 " stroke="none" fill="#3b433c" fill-rule="evenodd"></path><path id="path1" d="M30.224 17.804 C 30.116 17.977,30.071 18.433,30.120 18.865 C 30.168 19.297,30.132 19.668,30.035 19.728 C 29.940 19.787,29.904 20.124,29.953 20.492 C 30.002 20.854,29.985 21.286,29.917 21.450 C 29.848 21.615,29.807 22.106,29.825 22.542 C 29.843 22.981,29.784 23.333,29.691 23.333 C 29.588 23.333,29.560 23.686,29.619 24.250 C 29.683 24.870,29.653 25.167,29.527 25.167 C 29.415 25.167,29.376 25.348,29.428 25.625 C 29.475 25.877,29.254 28.820,28.936 32.165 C 28.618 35.510,28.385 38.274,28.419 38.308 C 28.477 38.366,31.533 38.741,32.917 38.859 C 33.579 38.916,33.583 38.913,33.529 38.375 C 33.499 38.077,33.548 37.833,33.638 37.833 C 33.733 37.833,33.764 37.552,33.712 37.167 C 33.656 36.749,33.689 36.500,33.801 36.500 C 33.911 36.500,33.943 36.279,33.884 35.917 C 33.832 35.596,33.859 35.333,33.945 35.333 C 34.030 35.333,34.069 35.071,34.032 34.750 C 33.993 34.422,34.038 34.167,34.133 34.167 C 34.234 34.167,34.266 33.898,34.212 33.500 C 34.163 33.133,34.193 32.833,34.278 32.833 C 34.363 32.833,34.402 32.571,34.365 32.250 C 34.324 31.902,34.369 31.667,34.477 31.667 C 34.575 31.667,34.617 31.564,34.569 31.439 C 34.521 31.314,34.755 29.235,35.089 26.818 C 35.704 22.359,35.835 21.314,35.887 20.417 C 35.904 20.142,35.975 19.826,36.047 19.716 C 36.118 19.606,36.132 19.335,36.076 19.115 C 36.012 18.858,36.072 18.618,36.245 18.446 C 36.591 18.099,36.514 18.081,33.270 17.752 C 30.226 17.443,30.452 17.439,30.224 17.804 M17.500 17.846 C 16.996 17.924,15.777 18.114,14.792 18.267 C 13.751 18.428,13.000 18.623,13.000 18.731 C 13.000 18.833,13.114 19.514,13.254 20.244 C 13.394 20.974,13.473 21.663,13.430 21.775 C 13.387 21.887,13.425 22.003,13.514 22.033 C 13.604 22.062,13.693 22.442,13.713 22.876 C 13.734 23.309,13.815 23.665,13.894 23.666 C 13.974 23.666,14.003 23.854,13.959 24.083 C 13.915 24.313,13.953 24.500,14.043 24.500 C 14.132 24.500,14.169 24.689,14.125 24.921 C 14.081 25.152,14.116 25.385,14.203 25.439 C 14.289 25.492,14.315 25.716,14.260 25.935 C 14.199 26.179,14.233 26.333,14.348 26.333 C 14.465 26.333,14.497 26.490,14.432 26.750 C 14.366 27.010,14.398 27.167,14.515 27.167 C 14.631 27.167,14.664 27.322,14.601 27.573 C 14.545 27.797,14.579 28.029,14.677 28.090 C 14.776 28.151,14.813 28.312,14.761 28.449 C 14.708 28.585,14.721 28.784,14.788 28.890 C 14.855 28.996,14.922 29.271,14.936 29.500 C 14.977 30.165,16.704 39.072,16.816 39.193 C 16.898 39.282,21.656 38.566,21.776 38.447 C 21.795 38.427,21.663 37.443,21.482 36.260 C 21.301 35.077,21.188 34.018,21.230 33.908 C 21.273 33.798,21.235 33.635,21.147 33.547 C 21.060 33.460,20.972 32.926,20.952 32.362 C 20.933 31.798,20.852 31.336,20.773 31.335 C 20.695 31.334,20.661 31.071,20.698 30.750 C 20.736 30.429,20.706 30.167,20.633 30.167 C 20.410 30.167,20.485 29.334,20.708 29.328 C 20.831 29.325,20.791 29.228,20.611 29.091 C 20.440 28.962,20.323 28.689,20.344 28.472 C 20.366 28.258,20.326 27.952,20.257 27.792 C 20.188 27.631,20.178 27.378,20.235 27.229 C 20.292 27.080,20.254 26.856,20.151 26.731 C 20.047 26.606,20.009 26.320,20.065 26.096 C 20.122 25.871,20.096 25.643,20.008 25.588 C 19.920 25.534,19.850 25.285,19.853 25.036 C 19.861 24.359,19.702 23.028,19.280 20.251 C 18.860 17.476,18.964 17.617,17.500 17.846 M22.667 50.519 C 11.873 51.473,1.736 58.107,3.404 63.127 C 5.207 68.556,15.760 73.500,25.543 73.500 C 38.058 73.500,50.431 65.919,47.498 60.048 C 44.522 54.094,32.860 49.619,22.667 50.519 M21.375 59.678 C 23.506 60.417,26.825 61.575,28.750 62.251 C 30.675 62.928,32.907 63.689,33.711 63.942 C 35.400 64.476,35.406 64.512,33.997 65.457 C 28.738 68.980,19.861 68.355,15.638 64.164 C 13.737 62.277,13.955 60.831,16.424 58.961 C 17.443 58.189,16.829 58.100,21.375 59.678 " stroke="none" fill="#edf3ed" fill-rule="evenodd"></path><path id="path2" d="M31.708 38.948 C 31.869 38.990,32.131 38.990,32.292 38.948 C 32.452 38.906,32.321 38.872,32.000 38.872 C 31.679 38.872,31.548 38.906,31.708 38.948 M50.348 59.250 C 50.342 59.342,50.492 59.904,50.680 60.500 C 51.462 62.973,50.124 65.821,46.879 68.588 L 45.583 69.694 45.499 76.805 C 45.417 83.717,45.404 83.943,45.035 84.858 C 41.810 92.856,26.204 98.912,14.500 96.705 C 12.465 96.322,11.950 96.481,13.607 96.981 C 19.907 98.882,23.512 99.265,29.833 98.706 C 31.749 98.536,32.584 98.363,36.417 97.344 C 42.846 95.635,49.303 90.930,50.843 86.833 L 51.250 85.750 51.250 73.583 L 51.250 61.417 50.804 60.250 C 50.559 59.608,50.354 59.158,50.348 59.250 M48.039 62.000 C 48.039 62.321,48.073 62.452,48.115 62.292 C 48.157 62.131,48.157 61.869,48.115 61.708 C 48.073 61.548,48.039 61.679,48.039 62.000 " stroke="none" fill="#64646c" fill-rule="evenodd"></path><path id="path3" d="M30.111 17.444 C 30.050 17.506,30.002 17.674,30.005 17.819 C 30.010 18.056,30.032 18.055,30.218 17.811 C 30.332 17.661,30.573 17.501,30.754 17.455 C 31.016 17.389,30.996 17.368,30.653 17.353 C 30.416 17.342,30.172 17.383,30.111 17.444 M31.794 17.618 C 32.001 17.658,32.301 17.656,32.460 17.615 C 32.620 17.573,32.450 17.540,32.083 17.542 C 31.717 17.544,31.586 17.578,31.794 17.618 M33.375 17.782 C 33.535 17.823,33.798 17.823,33.958 17.782 C 34.119 17.740,33.987 17.705,33.667 17.705 C 33.346 17.705,33.215 17.740,33.375 17.782 M36.120 18.555 C 35.934 19.027,35.965 19.269,36.182 19.051 C 36.283 18.951,36.337 18.730,36.302 18.559 C 36.242 18.261,36.236 18.261,36.120 18.555 M29.961 18.833 C 29.772 19.475,29.798 19.935,30.012 19.721 C 30.110 19.623,30.167 19.289,30.137 18.980 C 30.086 18.450,30.076 18.441,29.961 18.833 M35.955 19.767 C 35.888 19.834,35.833 20.004,35.833 20.144 C 35.833 20.332,35.883 20.351,36.019 20.215 C 36.121 20.113,36.175 19.943,36.140 19.837 C 36.105 19.732,36.022 19.701,35.955 19.767 M29.792 20.646 C 29.610 21.463,29.628 21.772,29.845 21.555 C 29.943 21.457,29.999 21.086,29.970 20.730 L 29.917 20.083 29.792 20.646 M29.660 21.958 C 29.657 22.027,29.613 22.365,29.563 22.708 C 29.506 23.101,29.540 23.333,29.653 23.333 C 29.756 23.333,29.833 23.010,29.833 22.583 C 29.833 21.987,29.686 21.454,29.660 21.958 M13.423 22.542 C 13.590 23.325,13.881 23.737,13.761 23.021 C 13.709 22.711,13.667 22.355,13.667 22.229 C 13.667 22.103,13.586 22.000,13.487 22.000 C 13.371 22.000,13.348 22.194,13.423 22.542 M13.669 23.792 C 13.677 24.157,13.995 24.399,13.997 24.042 C 13.999 23.835,13.925 23.667,13.833 23.667 C 13.742 23.667,13.668 23.723,13.669 23.792 M29.371 24.500 C 29.345 24.874,29.400 25.167,29.496 25.167 C 29.590 25.167,29.667 24.867,29.667 24.500 C 29.667 23.634,29.430 23.634,29.371 24.500 M13.836 24.625 C 13.843 24.990,14.162 25.233,14.164 24.875 C 14.166 24.669,14.092 24.500,14.000 24.500 C 13.908 24.500,13.834 24.556,13.836 24.625 M14.059 25.735 C 14.073 25.955,14.140 26.100,14.208 26.058 C 14.381 25.951,14.365 25.539,14.184 25.428 C 14.102 25.377,14.046 25.515,14.059 25.735 M20.003 26.282 C 20.001 26.483,20.075 26.693,20.167 26.750 C 20.379 26.881,20.379 26.495,20.167 26.167 C 20.035 25.963,20.005 25.985,20.003 26.282 M20.167 27.480 C 20.167 27.664,20.242 27.860,20.333 27.917 C 20.425 27.973,20.500 27.870,20.500 27.686 C 20.500 27.503,20.425 27.307,20.333 27.250 C 20.242 27.193,20.167 27.297,20.167 27.480 M20.345 28.542 C 20.339 28.794,20.408 29.000,20.500 29.000 C 20.696 29.000,20.696 28.872,20.500 28.417 C 20.373 28.121,20.355 28.136,20.345 28.542 M20.503 29.708 C 20.501 29.960,20.575 30.167,20.667 30.167 C 20.877 30.167,20.877 29.826,20.667 29.500 C 20.541 29.305,20.505 29.351,20.503 29.708 M20.678 30.792 C 20.672 31.090,20.742 31.333,20.833 31.333 C 21.031 31.333,21.031 31.044,20.833 30.583 C 20.713 30.304,20.688 30.338,20.678 30.792 M20.934 32.417 C 20.986 32.967,21.094 33.485,21.175 33.569 C 21.337 33.737,21.219 32.716,20.985 31.917 C 20.880 31.559,20.866 31.702,20.934 32.417 M34.333 32.194 C 34.333 32.789,34.539 32.706,34.623 32.077 C 34.653 31.851,34.601 31.667,34.506 31.667 C 34.411 31.667,34.333 31.904,34.333 32.194 M34.178 33.375 C 34.188 33.829,34.213 33.863,34.333 33.583 C 34.531 33.123,34.531 32.833,34.333 32.833 C 34.242 32.833,34.172 33.077,34.178 33.375 M34.000 34.667 C 34.000 35.319,34.245 35.318,34.268 34.666 C 34.278 34.391,34.221 34.167,34.143 34.167 C 34.064 34.167,34.000 34.392,34.000 34.667 M33.836 35.792 C 33.838 36.149,33.874 36.195,34.000 36.000 C 34.211 35.674,34.211 35.333,34.000 35.333 C 33.908 35.333,33.834 35.540,33.836 35.792 M16.045 36.750 C 16.344 38.461,16.551 39.333,16.656 39.333 C 16.812 39.333,16.292 36.567,16.102 36.387 C 16.021 36.311,15.996 36.471,16.045 36.750 M33.667 37.028 C 33.667 37.635,33.739 37.613,33.896 36.958 C 33.962 36.686,33.937 36.500,33.837 36.500 C 33.743 36.500,33.667 36.737,33.667 37.028 M33.512 38.292 C 33.522 38.698,33.540 38.712,33.667 38.417 C 33.862 37.961,33.862 37.833,33.667 37.833 C 33.575 37.833,33.505 38.040,33.512 38.292 M45.167 57.052 C 45.167 57.081,45.410 57.325,45.708 57.594 L 46.250 58.083 45.760 57.542 C 45.304 57.037,45.167 56.923,45.167 57.052 M14.375 61.917 C 14.377 62.283,14.411 62.414,14.451 62.206 C 14.491 61.999,14.490 61.699,14.448 61.540 C 14.406 61.380,14.374 61.550,14.375 61.917 M25.211 67.786 C 25.464 67.825,25.839 67.824,26.044 67.784 C 26.249 67.744,26.042 67.713,25.583 67.714 C 25.125 67.716,24.957 67.748,25.211 67.786 " stroke="none" fill="#9ca798" fill-rule="evenodd"></path><path id="path4" d="M5.491 57.458 L 4.917 58.083 5.542 57.509 C 6.123 56.974,6.243 56.833,6.116 56.833 C 6.088 56.833,5.807 57.115,5.491 57.458 M25.125 73.621 C 25.423 73.658,25.910 73.658,26.208 73.621 C 26.506 73.584,26.262 73.553,25.667 73.553 C 25.071 73.553,24.827 73.584,25.125 73.621 " stroke="none" fill="#959994" fill-rule="evenodd"></path></g></svg>