<svg id="svg" version="1.1" xmlns="http://www.w3.org/2000/svg" xmlns:xlink="http://www.w3.org/1999/xlink" width="140" height="50" viewBox="0, 0, 400,166.18666666666667"><g id="svgg"><path id="path0" d="M34.000 0.114 C 32.335 0.387,31.501 1.367,31.369 3.204 C 31.325 3.825,31.234 4.333,31.168 4.333 C 31.102 4.333,30.951 5.983,30.833 8.000 C 30.716 10.017,30.568 11.667,30.505 11.667 C 30.442 11.667,30.374 12.068,30.354 12.558 C 30.334 13.049,30.253 14.268,30.173 15.267 C 30.093 16.266,30.046 17.101,30.068 17.124 C 30.185 17.241,32.013 17.495,34.042 17.677 C 35.302 17.789,36.333 17.946,36.333 18.024 C 36.333 18.103,36.409 18.167,36.502 18.167 C 36.594 18.167,36.666 17.848,36.661 17.458 C 36.649 16.458,37.202 11.767,37.344 11.667 C 37.408 11.621,37.597 10.102,37.762 8.292 C 37.927 6.481,38.123 5.000,38.198 5.000 C 38.272 5.000,38.333 4.485,38.333 3.855 C 38.333 1.861,37.527 0.631,35.954 0.223 C 35.097 0.001,34.792 -0.016,34.000 0.114 M12.431 0.625 C 12.362 0.694,12.256 0.755,12.194 0.762 C 11.961 0.787,11.167 1.225,11.167 1.329 C 11.167 1.388,11.016 1.599,10.831 1.798 C 10.361 2.302,10.167 2.892,10.167 3.818 C 10.167 4.826,10.505 7.390,10.653 7.500 C 10.785 7.599,11.344 11.047,11.334 11.708 C 11.331 11.960,11.391 12.167,11.468 12.167 C 11.545 12.167,11.710 12.992,11.833 14.000 C 11.957 15.008,12.112 15.833,12.179 15.833 C 12.245 15.833,12.351 16.345,12.414 16.971 C 12.570 18.525,12.573 18.527,13.758 18.319 C 15.515 18.011,18.744 17.504,18.961 17.502 C 19.092 17.501,19.158 17.312,19.134 17.000 C 19.113 16.725,19.050 16.500,18.993 16.500 C 18.937 16.500,18.790 15.450,18.667 14.167 C 18.543 12.883,18.393 11.833,18.334 11.833 C 18.274 11.833,18.086 10.483,17.917 8.833 C 17.747 7.183,17.546 5.833,17.471 5.833 C 17.395 5.833,17.333 5.552,17.332 5.208 C 17.330 3.450,16.578 1.388,15.833 1.094 C 15.696 1.039,15.396 0.884,15.167 0.750 C 14.730 0.493,12.657 0.399,12.431 0.625 M214.358 8.857 C 214.051 8.946,213.692 9.108,213.560 9.217 C 212.674 9.955,212.197 10.467,212.095 10.792 C 212.031 10.998,211.918 11.167,211.846 11.167 C 211.655 11.167,211.620 13.753,211.805 14.114 C 211.891 14.280,212.064 14.637,212.189 14.906 C 212.411 15.385,213.054 16.130,213.295 16.189 C 213.362 16.205,213.658 16.319,213.953 16.443 C 215.890 17.252,218.888 16.148,219.252 14.492 C 219.311 14.221,219.429 14.000,219.513 14.000 C 219.598 14.000,219.667 13.475,219.667 12.833 C 219.667 12.192,219.600 11.667,219.519 11.667 C 219.437 11.667,219.323 11.413,219.265 11.102 C 219.172 10.610,218.559 9.826,217.807 9.238 C 217.118 8.701,215.517 8.524,214.358 8.857 M293.375 8.864 C 293.077 8.965,292.833 9.112,292.833 9.191 C 292.833 9.269,292.740 9.334,292.625 9.335 C 292.337 9.338,291.402 10.335,291.261 10.792 C 291.197 10.998,291.074 11.167,290.989 11.167 C 290.903 11.167,290.833 11.842,290.833 12.667 C 290.833 13.556,290.901 14.167,291.000 14.167 C 291.092 14.167,291.167 14.271,291.167 14.398 C 291.167 16.543,295.783 17.536,297.548 15.770 C 297.788 15.530,297.932 15.331,297.867 15.328 C 297.803 15.325,297.875 15.250,298.029 15.161 C 298.182 15.071,298.357 14.773,298.417 14.499 C 298.477 14.225,298.596 14.000,298.680 14.000 C 298.764 14.000,298.833 13.475,298.833 12.833 C 298.833 12.192,298.767 11.667,298.685 11.667 C 298.604 11.667,298.491 11.422,298.435 11.123 C 298.335 10.587,297.395 9.330,297.096 9.332 C 297.012 9.333,296.813 9.216,296.654 9.072 C 296.289 8.741,294.135 8.605,293.375 8.864 M172.833 33.083 L 172.833 56.167 175.833 56.167 L 178.833 56.167 178.833 46.250 C 178.833 40.796,178.890 36.333,178.958 36.333 C 179.027 36.332,179.105 35.948,179.132 35.478 C 179.192 34.415,179.630 32.294,179.814 32.173 C 179.890 32.124,180.043 31.802,180.155 31.458 C 180.267 31.115,180.428 30.833,180.513 30.833 C 180.597 30.833,180.667 30.738,180.667 30.622 C 180.667 30.132,182.974 28.021,183.792 27.763 C 183.998 27.698,184.167 27.586,184.167 27.515 C 184.167 27.343,185.207 27.044,186.295 26.903 C 186.779 26.841,187.214 26.724,187.264 26.645 C 187.376 26.463,189.500 26.452,189.500 26.633 C 189.500 26.706,189.781 26.784,190.125 26.806 C 191.054 26.868,192.677 27.320,192.951 27.594 C 193.083 27.725,193.289 27.833,193.409 27.833 C 193.673 27.833,196.167 30.211,196.167 30.464 C 196.167 30.562,196.272 30.748,196.401 30.877 C 196.667 31.144,197.167 32.522,197.167 32.992 C 197.167 33.164,197.247 33.332,197.346 33.365 C 197.674 33.475,197.821 37.614,197.827 46.958 L 197.833 56.167 200.844 56.167 L 203.856 56.167 203.803 44.542 C 203.764 35.972,203.698 32.829,203.553 32.583 C 203.444 32.400,203.268 31.762,203.162 31.167 C 203.056 30.571,202.834 29.783,202.671 29.417 C 202.507 29.050,202.319 28.574,202.253 28.358 C 201.958 27.391,199.181 24.000,198.685 24.000 C 198.592 24.000,198.457 23.900,198.383 23.779 C 198.310 23.657,197.987 23.413,197.667 23.237 C 197.346 23.061,197.037 22.854,196.981 22.777 C 196.925 22.701,196.813 22.636,196.731 22.632 C 196.587 22.627,196.001 22.430,195.500 22.218 C 195.362 22.160,195.213 22.104,195.167 22.095 C 195.121 22.086,195.008 22.030,194.917 21.972 C 194.674 21.817,192.863 21.500,192.219 21.500 C 191.915 21.500,191.667 21.434,191.667 21.354 C 191.667 21.274,190.917 21.195,190.000 21.179 C 188.930 21.161,188.333 21.213,188.333 21.325 C 188.333 21.421,188.085 21.500,187.781 21.500 C 187.175 21.500,185.398 21.788,185.000 21.951 C 184.862 22.007,184.694 22.041,184.625 22.026 C 184.556 22.012,184.500 22.067,184.500 22.148 C 184.500 22.230,184.240 22.345,183.922 22.405 C 183.604 22.464,183.248 22.607,183.130 22.721 C 183.013 22.836,182.621 23.068,182.260 23.237 C 181.489 23.599,181.445 23.633,180.157 24.858 C 179.612 25.375,179.167 25.881,179.167 25.983 C 179.167 26.084,179.092 26.167,179.000 26.167 C 178.891 26.167,178.833 23.361,178.833 18.083 L 178.833 10.000 175.833 10.000 L 172.833 10.000 172.833 33.083 M75.833 12.185 C 75.833 12.267,75.566 12.333,75.240 12.333 C 74.276 12.333,72.295 12.679,71.667 12.956 C 69.836 13.765,68.570 14.411,68.274 14.687 C 68.089 14.859,67.881 15.000,67.812 15.000 C 67.666 15.000,65.333 17.290,65.333 17.434 C 65.333 17.488,65.178 17.750,64.989 18.016 C 64.799 18.282,64.705 18.502,64.780 18.505 C 64.855 18.508,64.794 18.582,64.644 18.669 C 64.494 18.757,64.322 19.092,64.261 19.414 C 64.201 19.736,64.088 20.000,64.011 20.000 C 63.730 20.000,63.423 22.304,63.423 24.417 C 63.423 26.468,63.728 28.833,63.992 28.833 C 64.059 28.833,64.199 29.115,64.303 29.458 C 64.407 29.802,64.831 30.495,65.246 30.999 C 65.661 31.502,66.000 31.967,66.000 32.031 C 66.000 32.095,66.221 32.278,66.491 32.438 C 66.761 32.597,66.937 32.801,66.882 32.890 C 66.827 32.979,66.860 33.003,66.955 32.944 C 67.051 32.885,67.222 32.949,67.335 33.085 C 67.448 33.222,67.636 33.333,67.753 33.333 C 67.869 33.333,68.002 33.431,68.048 33.551 C 68.094 33.670,68.439 33.870,68.816 33.994 C 69.192 34.118,69.500 34.275,69.500 34.342 C 69.500 34.408,69.837 34.563,70.250 34.685 C 70.662 34.806,71.000 34.957,71.000 35.018 C 71.000 35.080,71.544 35.263,72.208 35.424 C 72.873 35.585,73.454 35.769,73.500 35.832 C 73.546 35.895,74.240 36.083,75.042 36.249 C 75.844 36.416,76.500 36.603,76.500 36.666 C 76.500 36.729,77.025 36.879,77.667 37.000 C 78.308 37.121,78.833 37.269,78.833 37.330 C 78.833 37.390,79.396 37.572,80.083 37.734 C 80.771 37.896,81.333 38.089,81.333 38.162 C 81.333 38.236,81.593 38.345,81.911 38.405 C 82.229 38.464,82.585 38.609,82.703 38.727 C 82.821 38.844,82.976 38.948,83.049 38.958 C 83.344 38.997,84.333 39.667,84.333 39.828 C 84.333 39.922,84.447 40.000,84.587 40.000 C 84.726 40.000,84.926 40.187,85.030 40.417 C 85.135 40.646,85.276 40.833,85.344 40.833 C 85.562 40.833,86.206 42.059,86.438 42.917 C 87.052 45.190,86.396 47.487,84.653 49.167 C 83.404 50.370,83.339 50.418,82.572 50.686 C 82.212 50.812,81.876 50.970,81.826 51.037 C 81.341 51.688,75.043 51.567,74.370 50.893 C 74.245 50.769,74.041 50.667,73.916 50.667 C 73.220 50.667,71.029 48.723,70.541 47.673 C 70.391 47.349,70.206 47.041,70.131 46.989 C 70.018 46.910,69.512 44.873,69.503 44.458 C 69.501 44.390,68.037 44.333,66.250 44.333 L 63.000 44.333 63.000 45.250 C 63.000 45.754,63.068 46.167,63.150 46.167 C 63.233 46.167,63.353 46.620,63.418 47.174 C 63.482 47.728,63.705 48.502,63.913 48.894 C 64.121 49.285,64.348 49.788,64.417 50.011 C 64.486 50.234,64.642 50.529,64.763 50.667 C 64.885 50.804,65.138 51.085,65.326 51.292 C 65.513 51.498,65.667 51.710,65.667 51.763 C 65.667 51.910,66.968 53.167,67.120 53.167 C 67.193 53.167,67.347 53.317,67.461 53.500 C 67.576 53.683,67.778 53.833,67.910 53.833 C 68.042 53.833,68.210 53.931,68.283 54.051 C 68.357 54.171,68.660 54.368,68.958 54.488 C 69.256 54.609,69.500 54.777,69.500 54.863 C 69.500 54.949,69.575 54.973,69.667 54.917 C 69.758 54.860,69.833 54.884,69.833 54.970 C 69.833 55.057,70.171 55.212,70.583 55.316 C 70.996 55.420,71.333 55.579,71.333 55.669 C 71.333 55.759,71.390 55.818,71.458 55.799 C 71.601 55.761,73.290 56.140,73.667 56.296 C 73.804 56.353,74.104 56.422,74.333 56.449 C 78.081 56.902,80.809 56.793,83.417 56.087 C 83.967 55.939,84.507 55.808,84.618 55.797 C 84.728 55.787,84.789 55.729,84.752 55.670 C 84.716 55.611,85.094 55.424,85.593 55.254 C 86.092 55.085,86.500 54.883,86.500 54.806 C 86.500 54.729,86.598 54.667,86.719 54.667 C 86.839 54.667,87.087 54.527,87.271 54.356 C 87.454 54.185,87.786 53.948,88.007 53.829 C 88.229 53.711,88.549 53.437,88.719 53.222 C 88.888 53.006,89.084 52.866,89.154 52.909 C 89.297 52.997,90.887 50.930,91.192 50.261 C 91.299 50.026,91.442 49.833,91.508 49.833 C 91.575 49.833,91.730 49.496,91.851 49.083 C 91.973 48.671,92.123 48.333,92.184 48.333 C 92.435 48.333,92.743 45.955,92.735 44.083 C 92.727 42.146,92.422 39.833,92.174 39.833 C 92.108 39.833,91.954 39.533,91.833 39.167 C 91.712 38.800,91.569 38.500,91.514 38.500 C 91.459 38.500,91.319 38.284,91.202 38.020 C 90.946 37.440,88.864 35.333,88.548 35.333 C 88.424 35.333,88.281 35.224,88.229 35.090 C 88.178 34.956,87.974 34.797,87.776 34.737 C 87.578 34.676,87.304 34.536,87.167 34.425 C 87.029 34.314,86.542 34.091,86.083 33.929 C 85.625 33.767,84.932 33.492,84.543 33.317 C 84.155 33.143,83.686 33.000,83.502 33.000 C 83.317 33.000,83.167 32.913,83.167 32.806 C 83.167 32.699,83.117 32.660,83.057 32.721 C 82.997 32.781,82.865 32.767,82.765 32.690 C 82.665 32.613,82.115 32.453,81.542 32.336 C 80.969 32.218,80.500 32.071,80.500 32.009 C 80.500 31.947,79.825 31.760,79.000 31.592 C 78.175 31.425,77.500 31.235,77.500 31.171 C 77.500 31.106,77.069 30.952,76.542 30.828 C 76.015 30.704,75.546 30.552,75.500 30.490 C 75.454 30.428,74.970 30.249,74.425 30.091 C 73.879 29.933,73.250 29.661,73.027 29.486 C 72.804 29.310,72.560 29.167,72.485 29.167 C 72.410 29.167,72.165 28.998,71.940 28.792 C 71.716 28.585,71.431 28.332,71.308 28.229 C 71.184 28.125,70.933 27.832,70.750 27.576 C 70.567 27.321,70.317 27.011,70.196 26.889 C 69.398 26.082,69.448 21.405,70.260 20.951 C 70.392 20.877,70.500 20.709,70.500 20.576 C 70.500 20.444,70.650 20.242,70.833 20.128 C 71.017 20.013,71.167 19.830,71.167 19.721 C 71.167 19.612,71.317 19.475,71.500 19.417 C 71.684 19.358,71.911 19.166,72.006 18.989 C 72.101 18.812,72.283 18.667,72.411 18.667 C 72.538 18.667,72.749 18.561,72.879 18.431 C 73.148 18.161,74.703 17.667,75.280 17.667 C 75.493 17.667,75.667 17.592,75.667 17.500 C 75.667 17.400,76.333 17.333,77.333 17.333 C 78.333 17.333,79.000 17.400,79.000 17.500 C 79.000 17.592,79.211 17.667,79.470 17.667 C 80.116 17.667,81.668 18.144,81.955 18.431 C 82.084 18.561,82.249 18.667,82.320 18.667 C 82.688 18.667,84.672 20.638,84.933 21.264 C 85.059 21.565,85.233 21.855,85.321 21.909 C 85.409 21.963,85.531 22.344,85.593 22.754 L 85.705 23.500 89.113 23.500 C 92.283 23.500,92.516 23.480,92.433 23.208 C 92.384 23.048,92.326 22.635,92.304 22.292 C 92.283 21.948,92.221 21.667,92.166 21.667 C 92.111 21.667,91.974 21.217,91.860 20.667 C 91.747 20.117,91.582 19.667,91.493 19.667 C 91.405 19.667,91.333 19.584,91.333 19.484 C 91.333 19.249,90.816 18.143,90.590 17.892 C 90.495 17.787,90.192 17.418,89.917 17.073 C 89.642 16.728,89.196 16.252,88.926 16.015 C 88.656 15.777,88.272 15.415,88.073 15.208 C 87.874 15.002,87.630 14.833,87.531 14.833 C 87.431 14.833,87.290 14.733,87.217 14.610 C 87.143 14.487,86.765 14.247,86.375 14.078 C 85.985 13.908,85.667 13.717,85.667 13.653 C 85.667 13.589,85.460 13.485,85.208 13.422 C 84.956 13.359,84.525 13.203,84.250 13.074 C 83.566 12.755,81.472 12.333,80.572 12.333 C 80.166 12.333,79.833 12.255,79.833 12.159 C 79.833 12.046,79.130 11.994,77.833 12.011 C 76.733 12.025,75.833 12.103,75.833 12.185 M243.000 21.333 C 243.000 21.425,242.704 21.500,242.342 21.500 C 241.560 21.500,239.992 21.812,239.735 22.018 C 239.635 22.098,239.503 22.114,239.443 22.054 C 239.383 21.994,239.333 22.023,239.333 22.119 C 239.333 22.215,238.996 22.379,238.583 22.483 C 238.171 22.586,237.833 22.736,237.833 22.816 C 237.833 22.895,237.590 23.058,237.292 23.178 C 236.994 23.298,236.595 23.551,236.406 23.740 C 236.217 23.929,235.893 24.196,235.686 24.333 C 235.480 24.471,235.034 24.944,234.697 25.386 L 234.083 26.188 234.000 24.052 L 233.917 21.917 230.958 21.871 L 228.000 21.826 228.000 39.000 L 228.000 56.174 230.958 56.129 L 233.917 56.083 234.008 45.583 C 234.096 35.363,234.238 32.667,234.689 32.667 C 234.755 32.667,234.927 32.262,235.071 31.768 C 235.215 31.274,235.450 30.824,235.593 30.769 C 235.737 30.714,235.817 30.608,235.770 30.533 C 235.724 30.458,235.903 30.193,236.167 29.943 C 236.431 29.694,236.694 29.342,236.752 29.162 C 236.809 28.981,236.952 28.833,237.070 28.833 C 237.188 28.833,237.490 28.643,237.741 28.410 C 238.495 27.712,239.776 27.136,241.007 26.942 C 241.645 26.842,242.167 26.701,242.167 26.630 C 242.167 26.558,242.692 26.500,243.333 26.500 C 244.000 26.500,244.500 26.571,244.500 26.667 C 244.500 26.758,244.744 26.834,245.042 26.834 C 246.165 26.836,248.537 27.755,248.732 28.263 C 248.782 28.394,248.929 28.500,249.059 28.500 C 249.188 28.500,249.569 28.819,249.904 29.208 C 250.240 29.598,250.614 30.029,250.736 30.167 C 250.858 30.304,251.010 30.585,251.073 30.792 C 251.137 30.998,251.264 31.167,251.354 31.167 C 251.445 31.167,251.477 31.236,251.424 31.322 C 251.371 31.407,251.399 31.521,251.486 31.575 C 251.631 31.664,252.056 33.352,251.997 33.604 C 251.983 33.664,252.072 33.775,252.194 33.850 C 252.375 33.962,252.426 36.048,252.466 45.077 L 252.515 56.167 255.508 56.167 L 258.500 56.167 258.500 46.324 C 258.500 36.893,258.644 33.333,259.027 33.333 C 259.104 33.333,259.167 33.223,259.167 33.089 C 259.167 32.676,259.686 31.291,259.933 31.043 C 260.061 30.915,260.167 30.703,260.167 30.573 C 260.167 30.443,260.317 30.242,260.500 30.128 C 260.683 30.013,260.833 29.832,260.833 29.724 C 260.833 29.240,263.460 27.367,263.760 27.636 C 263.830 27.699,263.838 27.665,263.779 27.561 C 263.659 27.351,265.471 26.833,266.326 26.833 C 266.605 26.833,266.833 26.752,266.833 26.652 C 266.833 26.218,271.728 27.038,272.250 27.559 C 272.388 27.698,272.645 27.857,272.819 27.912 C 272.993 27.967,273.178 28.122,273.229 28.256 C 273.281 28.390,273.419 28.501,273.536 28.502 C 273.799 28.504,274.833 29.547,274.833 29.809 C 274.833 29.914,274.905 30.000,274.992 30.000 C 275.080 30.000,275.276 30.262,275.428 30.583 C 275.580 30.904,275.764 31.167,275.836 31.167 C 275.908 31.167,276.060 31.560,276.174 32.042 C 276.288 32.523,276.439 32.955,276.510 33.001 C 276.884 33.247,277.000 36.293,277.000 45.929 L 277.000 56.167 280.007 56.167 L 283.015 56.167 282.966 44.222 C 282.927 34.850,282.872 32.263,282.708 32.208 C 282.594 32.170,282.500 31.931,282.500 31.678 C 282.500 31.269,282.330 30.587,282.041 29.833 C 281.989 29.696,281.934 29.546,281.921 29.500 C 281.907 29.454,281.770 29.126,281.615 28.771 C 281.460 28.416,281.333 28.066,281.333 27.994 C 281.333 27.921,281.277 27.836,281.208 27.806 C 281.140 27.775,280.933 27.477,280.750 27.143 C 280.177 26.101,279.097 24.845,278.269 24.260 C 278.018 24.083,277.665 23.810,277.485 23.654 C 277.305 23.498,276.935 23.278,276.662 23.165 C 276.390 23.052,276.167 22.906,276.167 22.839 C 276.167 22.773,275.848 22.625,275.458 22.509 C 275.069 22.394,274.665 22.230,274.561 22.145 C 274.290 21.925,272.213 21.506,271.375 21.503 C 270.985 21.501,270.667 21.425,270.667 21.333 C 270.667 21.113,267.719 21.113,267.583 21.333 C 267.527 21.425,267.261 21.500,266.993 21.500 C 266.194 21.500,264.167 21.890,264.167 22.044 C 264.167 22.122,264.092 22.140,264.000 22.083 C 263.908 22.027,263.833 22.043,263.833 22.120 C 263.833 22.198,263.500 22.359,263.092 22.479 C 262.684 22.600,262.328 22.747,262.300 22.808 C 262.273 22.868,261.952 23.067,261.587 23.250 C 260.805 23.643,260.712 23.718,259.443 24.962 C 258.072 26.306,257.886 26.529,257.745 27.000 C 257.676 27.229,257.448 27.578,257.237 27.774 C 257.026 27.971,256.899 28.177,256.955 28.233 C 257.010 28.288,257.008 28.333,256.949 28.333 C 256.891 28.333,256.684 27.964,256.489 27.512 C 256.295 27.060,255.993 26.561,255.818 26.403 C 255.643 26.244,255.500 26.055,255.500 25.982 C 255.500 25.770,253.940 24.273,253.448 24.014 C 253.202 23.883,253.000 23.726,253.000 23.664 C 253.000 23.602,252.700 23.415,252.333 23.250 C 251.967 23.085,251.667 22.898,251.667 22.835 C 251.667 22.772,251.348 22.620,250.958 22.497 C 250.569 22.374,250.156 22.203,250.042 22.116 C 249.927 22.030,249.833 22.015,249.833 22.083 C 249.833 22.152,249.740 22.130,249.625 22.036 C 249.357 21.815,247.649 21.500,246.719 21.500 C 246.324 21.500,246.000 21.425,246.000 21.333 C 246.000 21.235,245.389 21.167,244.500 21.167 C 243.611 21.167,243.000 21.235,243.000 21.333 M149.000 21.549 C 148.954 21.594,148.468 21.682,147.919 21.744 C 147.370 21.807,146.882 21.909,146.835 21.971 C 146.788 22.033,146.637 22.113,146.500 22.150 C 145.710 22.362,144.833 22.724,144.833 22.840 C 144.833 22.913,144.625 23.019,144.369 23.075 C 144.114 23.131,143.683 23.359,143.411 23.582 C 143.139 23.804,142.660 24.195,142.347 24.451 C 142.034 24.707,141.659 25.056,141.514 25.227 C 141.369 25.398,141.172 25.623,141.076 25.727 C 140.653 26.189,139.667 28.178,139.667 28.569 C 139.667 28.806,139.602 29.000,139.524 29.000 C 139.361 29.000,139.319 29.419,139.311 31.125 C 139.302 33.047,139.591 34.278,140.366 35.610 C 141.103 36.878,143.642 39.057,144.792 39.408 C 144.998 39.471,145.167 39.584,145.167 39.659 C 145.167 39.735,145.448 39.849,145.792 39.913 C 146.135 39.978,146.717 40.164,147.083 40.327 C 147.450 40.491,148.162 40.719,148.667 40.834 C 149.171 40.949,149.658 41.102,149.750 41.173 C 149.842 41.243,150.554 41.436,151.333 41.600 C 152.112 41.764,152.787 41.950,152.833 42.012 C 152.879 42.075,153.348 42.222,153.875 42.340 C 154.402 42.457,154.833 42.608,154.833 42.675 C 154.833 42.742,155.077 42.842,155.375 42.899 C 158.157 43.424,160.523 46.834,159.096 48.261 C 158.951 48.406,158.833 48.614,158.833 48.724 C 158.833 49.031,157.840 50.167,157.571 50.167 C 157.440 50.167,157.333 50.246,157.333 50.342 C 157.333 50.438,157.108 50.596,156.833 50.692 C 156.558 50.788,156.333 50.923,156.333 50.994 C 156.333 51.246,154.218 51.581,152.667 51.573 C 151.051 51.565,148.833 51.233,148.833 50.999 C 148.833 50.928,148.665 50.827,148.458 50.774 C 146.997 50.403,145.000 47.844,145.000 46.343 C 145.000 46.009,144.919 46.000,141.750 46.000 L 138.500 46.000 138.500 46.407 C 138.500 46.631,138.564 46.853,138.643 46.902 C 138.722 46.951,138.837 47.422,138.899 47.950 C 138.961 48.478,139.225 49.361,139.486 49.913 C 139.747 50.465,139.979 50.992,140.003 51.083 C 140.026 51.175,140.185 51.348,140.356 51.468 C 140.527 51.588,140.667 51.760,140.667 51.850 C 140.667 52.053,142.444 53.833,142.646 53.833 C 142.727 53.833,142.895 53.957,143.021 54.109 C 143.147 54.261,143.494 54.487,143.792 54.611 C 144.090 54.736,144.333 54.912,144.333 55.002 C 144.333 55.093,144.447 55.167,144.585 55.167 C 144.724 55.167,145.155 55.313,145.543 55.491 C 146.579 55.966,148.220 56.486,148.378 56.389 C 148.453 56.343,148.626 56.397,148.763 56.510 C 149.107 56.796,154.264 56.923,155.583 56.679 C 156.997 56.417,157.055 56.404,157.333 56.296 C 157.471 56.243,157.940 56.107,158.375 55.995 C 158.810 55.882,159.167 55.740,159.167 55.678 C 159.167 55.616,159.542 55.431,160.000 55.266 C 160.458 55.101,160.833 54.904,160.833 54.828 C 160.833 54.752,160.968 54.646,161.133 54.594 C 161.297 54.542,161.879 54.048,162.424 53.497 C 163.793 52.114,163.984 51.886,164.212 51.368 C 164.321 51.120,164.475 50.870,164.555 50.813 C 165.324 50.265,165.327 43.580,164.558 43.020 C 164.480 42.963,164.316 42.722,164.194 42.484 C 163.942 41.995,162.778 40.750,162.103 40.250 C 161.856 40.067,161.525 39.798,161.368 39.654 C 161.212 39.509,160.821 39.288,160.500 39.161 C 160.179 39.034,159.824 38.841,159.712 38.731 C 159.599 38.620,159.205 38.479,158.837 38.417 C 158.468 38.355,158.167 38.254,158.167 38.193 C 158.167 38.064,157.198 37.746,156.292 37.579 C 155.948 37.515,155.667 37.405,155.667 37.333 C 155.667 37.262,155.385 37.153,155.042 37.092 C 153.985 36.903,150.788 35.988,150.083 35.673 C 149.717 35.509,149.173 35.322,148.875 35.257 C 148.577 35.193,148.333 35.080,148.333 35.007 C 148.333 34.934,148.108 34.781,147.833 34.667 C 147.558 34.553,147.333 34.405,147.333 34.339 C 147.333 34.273,147.089 34.087,146.789 33.926 C 146.452 33.744,146.129 33.371,145.938 32.942 C 145.769 32.561,145.563 32.120,145.482 31.961 C 144.515 30.074,147.216 26.833,149.756 26.833 C 149.982 26.833,150.167 26.758,150.167 26.667 C 150.167 26.463,153.197 26.438,153.425 26.640 C 153.512 26.717,154.015 26.873,154.542 26.986 C 155.069 27.098,155.594 27.279,155.708 27.387 C 155.823 27.495,156.104 27.681,156.333 27.801 C 157.036 28.168,157.748 28.900,158.073 29.591 C 158.243 29.954,158.448 30.293,158.527 30.345 C 158.606 30.397,158.727 30.884,158.794 31.428 L 158.918 32.417 161.984 32.462 L 165.050 32.508 164.942 31.229 C 164.882 30.526,164.757 29.859,164.664 29.747 C 164.571 29.634,164.541 29.420,164.598 29.271 C 164.656 29.122,164.628 29.000,164.536 29.000 C 164.445 29.000,164.322 28.740,164.262 28.422 C 164.202 28.104,164.063 27.748,163.952 27.630 C 163.841 27.513,163.616 27.127,163.452 26.772 C 163.126 26.068,161.043 23.839,160.708 23.835 C 160.594 23.834,160.500 23.762,160.500 23.674 C 160.500 23.587,160.219 23.385,159.875 23.225 C 159.531 23.065,159.212 22.889,159.167 22.833 C 159.059 22.704,157.544 22.134,157.398 22.169 C 157.337 22.183,157.241 22.122,157.185 22.033 C 156.983 21.710,149.303 21.257,149.000 21.549 M100.333 32.323 C 100.333 39.137,100.392 42.850,100.500 42.917 C 100.592 42.973,100.667 43.422,100.667 43.914 C 100.667 45.275,100.994 47.337,101.328 48.083 C 101.492 48.450,101.680 48.923,101.745 49.135 C 102.089 50.262,104.663 53.629,105.375 53.885 C 105.535 53.942,105.667 54.058,105.667 54.141 C 105.667 54.225,105.910 54.391,106.208 54.512 C 106.506 54.632,106.803 54.815,106.867 54.919 C 106.931 55.023,107.306 55.213,107.700 55.341 C 108.094 55.469,108.507 55.660,108.617 55.766 C 108.727 55.873,109.156 56.011,109.571 56.073 C 109.986 56.135,110.372 56.262,110.430 56.354 C 110.487 56.447,110.648 56.479,110.788 56.425 C 110.928 56.371,111.157 56.423,111.297 56.539 C 111.669 56.848,117.343 56.838,117.717 56.527 C 117.865 56.405,118.067 56.355,118.167 56.417 C 118.266 56.478,118.438 56.458,118.549 56.372 C 118.660 56.285,119.124 56.123,119.581 56.012 C 120.038 55.900,120.451 55.758,120.498 55.696 C 120.602 55.558,121.713 55.038,121.845 55.064 C 121.898 55.075,122.054 54.971,122.193 54.833 C 122.331 54.696,122.661 54.433,122.926 54.250 C 123.191 54.067,123.841 53.482,124.370 52.951 L 125.333 51.985 125.333 54.076 L 125.333 56.167 128.333 56.167 L 131.333 56.167 131.333 39.000 L 131.333 21.833 128.344 21.833 L 125.355 21.833 125.302 32.756 C 125.257 42.245,125.217 43.700,125.000 43.837 C 124.862 43.924,124.799 43.996,124.859 43.997 C 125.223 44.006,123.871 47.432,123.391 47.717 C 123.268 47.790,123.165 47.940,123.162 48.050 C 123.156 48.381,121.918 49.589,121.271 49.896 C 120.939 50.053,120.667 50.242,120.667 50.315 C 120.667 50.388,120.348 50.542,119.958 50.659 C 119.569 50.775,119.209 50.936,119.158 51.016 C 118.750 51.666,113.484 51.531,112.043 50.835 C 111.661 50.651,111.271 50.500,111.175 50.500 C 111.079 50.500,110.999 50.444,110.998 50.375 C 110.997 50.306,110.697 50.107,110.331 49.931 C 109.965 49.756,109.696 49.582,109.733 49.545 C 109.770 49.507,109.471 49.173,109.067 48.801 C 108.664 48.429,108.333 48.029,108.333 47.913 C 108.333 47.797,108.221 47.659,108.083 47.606 C 107.946 47.554,107.833 47.401,107.833 47.267 C 107.833 47.133,107.735 46.925,107.616 46.804 C 107.355 46.540,106.833 44.745,106.833 44.114 C 106.833 43.868,106.758 43.667,106.667 43.667 C 106.557 43.667,106.500 39.917,106.500 32.750 L 106.500 21.833 103.417 21.833 L 100.333 21.833 100.333 32.323 M212.667 39.000 L 212.667 56.167 215.583 56.167 L 218.500 56.167 218.500 39.000 L 218.500 21.833 215.583 21.833 L 212.667 21.833 212.667 39.000 M291.667 39.000 L 291.667 56.167 294.667 56.167 L 297.667 56.167 297.667 39.000 L 297.667 21.833 294.667 21.833 L 291.667 21.833 291.667 39.000 M28.104 38.637 C 28.067 38.699,27.940 40.344,27.822 42.292 C 27.702 44.274,27.538 45.833,27.449 45.833 C 27.355 45.833,27.333 46.223,27.395 46.792 C 27.520 47.946,27.340 48.351,26.841 48.042 C 26.441 47.794,24.500 47.760,24.500 48.000 C 24.500 48.092,24.246 48.167,23.937 48.167 L 23.373 48.167 23.175 46.208 C 23.067 45.131,22.912 44.100,22.832 43.917 C 22.752 43.733,22.596 42.662,22.485 41.536 C 22.374 40.410,22.219 39.449,22.141 39.401 C 22.064 39.353,22.000 39.180,22.000 39.017 C 22.000 38.758,21.907 38.736,21.292 38.846 C 18.428 39.359,17.513 39.499,17.022 39.499 C 16.494 39.500,16.468 39.527,16.575 39.958 C 16.637 40.210,16.706 40.604,16.728 40.833 C 16.750 41.063,16.812 41.362,16.867 41.500 C 16.922 41.637,17.058 42.425,17.170 43.250 C 17.282 44.075,17.421 44.825,17.479 44.917 C 17.736 45.327,18.093 48.667,17.879 48.667 C 17.762 48.667,17.667 48.732,17.667 48.813 C 17.667 48.893,17.067 49.053,16.333 49.167 C 15.600 49.281,15.000 49.425,15.000 49.488 C 15.000 49.551,14.475 49.739,13.833 49.905 C 13.192 50.071,12.667 50.260,12.667 50.324 C 12.667 50.388,12.292 50.542,11.833 50.667 C 11.375 50.791,11.000 50.940,11.000 50.997 C 11.000 51.054,10.625 51.236,10.167 51.400 C 9.708 51.565,9.333 51.749,9.333 51.808 C 9.332 51.868,8.995 52.055,8.583 52.225 C 8.171 52.394,7.833 52.587,7.833 52.652 C 7.833 52.718,7.571 52.874,7.250 53.000 C 6.929 53.126,6.667 53.288,6.667 53.360 C 6.667 53.432,6.427 53.616,6.133 53.767 C 5.840 53.919,5.513 54.127,5.406 54.230 C 5.300 54.333,4.925 54.642,4.572 54.917 C 4.220 55.192,3.779 55.596,3.591 55.815 C 3.133 56.350,2.441 57.000,2.329 57.000 C 2.279 57.000,2.097 57.244,1.923 57.542 C 1.750 57.840,1.556 58.121,1.493 58.167 C 1.429 58.212,1.086 58.808,0.730 59.489 L 0.083 60.728 0.083 73.573 C 0.083 86.844,0.116 87.543,0.754 88.084 C 0.863 88.176,1.002 88.411,1.064 88.607 C 1.346 89.494,4.646 92.717,5.979 93.406 C 6.266 93.554,6.500 93.748,6.500 93.838 C 6.500 93.927,6.595 94.000,6.711 94.000 C 6.828 94.000,7.184 94.177,7.503 94.392 C 7.822 94.608,8.365 94.886,8.708 95.009 C 9.052 95.133,9.333 95.288,9.333 95.354 C 9.333 95.420,9.615 95.564,9.958 95.675 C 10.302 95.785,10.696 95.965,10.833 96.075 C 11.912 96.935,19.288 97.541,23.250 97.095 C 33.867 95.901,43.327 90.506,45.147 84.607 C 45.482 83.524,45.500 83.117,45.500 76.687 L 45.500 69.909 46.752 68.864 C 50.040 66.121,51.359 63.480,50.821 60.722 C 50.698 60.096,50.595 59.540,50.591 59.488 C 50.587 59.436,50.452 59.262,50.292 59.101 C 50.131 58.941,50.000 58.712,50.000 58.592 C 50.000 58.472,49.886 58.279,49.746 58.163 C 49.606 58.047,49.521 57.923,49.557 57.888 C 49.746 57.698,45.727 54.006,44.941 53.647 C 44.698 53.537,44.500 53.388,44.500 53.317 C 44.500 53.246,44.237 53.093,43.917 52.977 C 43.596 52.861,43.333 52.709,43.333 52.638 C 43.333 52.497,40.629 51.167,40.343 51.167 C 40.246 51.167,40.167 51.105,40.167 51.030 C 40.167 50.955,39.792 50.791,39.333 50.667 C 38.875 50.542,38.500 50.387,38.500 50.322 C 38.500 50.257,37.994 50.069,37.375 49.904 C 36.756 49.739,36.212 49.552,36.167 49.490 C 36.121 49.427,35.536 49.278,34.868 49.160 C 34.199 49.041,33.613 48.882,33.566 48.805 C 33.519 48.729,33.259 48.667,32.989 48.667 L 32.498 48.667 32.607 47.458 C 32.668 46.794,32.770 46.212,32.835 46.167 C 32.900 46.121,33.051 44.977,33.171 43.625 C 33.290 42.273,33.444 41.167,33.512 41.167 C 33.580 41.167,33.662 40.754,33.693 40.250 C 33.749 39.342,33.745 39.332,33.250 39.262 C 32.975 39.224,32.254 39.112,31.647 39.013 C 31.041 38.914,30.253 38.833,29.896 38.833 C 29.540 38.833,29.006 38.764,28.709 38.679 C 28.413 38.594,28.141 38.575,28.104 38.637 M29.024 50.506 C 40.959 51.699,50.888 59.319,47.367 64.583 C 42.365 72.063,27.586 75.892,16.583 72.560 C 10.289 70.653,5.235 67.366,3.604 64.117 C 0.183 57.303,15.417 49.145,29.024 50.506 M16.458 59.256 C 14.183 60.925,14.000 62.465,15.863 64.281 C 20.113 68.423,29.263 68.858,34.366 65.162 L 35.024 64.686 34.323 64.497 C 33.938 64.393,33.501 64.241,33.353 64.157 C 33.205 64.074,32.258 63.740,31.250 63.416 C 30.242 63.091,29.267 62.757,29.083 62.674 C 28.900 62.591,27.850 62.223,26.750 61.855 C 25.650 61.488,23.662 60.806,22.333 60.339 C 16.765 58.383,17.470 58.513,16.458 59.256 M64.333 108.917 L 64.333 130.667 67.333 130.667 L 70.333 130.667 70.333 121.917 L 70.333 113.167 73.522 113.167 C 77.011 113.167,77.171 113.212,77.439 114.281 C 77.493 114.493,77.599 114.667,77.677 114.667 C 77.754 114.667,77.974 114.985,78.164 115.375 C 78.708 116.488,79.040 117.063,79.265 117.289 C 79.379 117.403,79.560 117.760,79.666 118.082 C 79.772 118.403,79.920 118.667,79.995 118.667 C 80.069 118.667,80.248 118.960,80.392 119.319 C 80.535 119.678,80.732 120.021,80.829 120.081 C 80.926 120.140,81.120 120.428,81.261 120.720 C 81.403 121.011,81.739 121.625,82.010 122.083 C 82.281 122.542,82.593 123.123,82.704 123.375 C 82.816 123.627,82.964 123.833,83.034 123.833 C 83.105 123.833,83.273 124.077,83.409 124.375 C 83.544 124.673,83.846 125.217,84.079 125.583 C 84.313 125.950,84.663 126.587,84.859 127.000 C 85.054 127.412,85.277 127.775,85.355 127.805 C 85.433 127.835,85.627 128.135,85.785 128.472 C 85.943 128.808,86.135 129.158,86.212 129.250 C 86.288 129.342,86.478 129.679,86.634 130.000 L 86.917 130.583 90.542 130.628 C 94.612 130.679,94.811 130.584,93.542 129.203 C 93.427 129.078,93.333 128.873,93.333 128.746 C 93.333 128.620,93.237 128.457,93.120 128.383 C 93.003 128.310,92.767 127.931,92.595 127.542 C 92.423 127.152,92.219 126.833,92.141 126.833 C 92.064 126.833,92.000 126.753,92.000 126.655 C 92.000 126.557,91.785 126.163,91.523 125.780 C 91.260 125.397,90.993 124.915,90.928 124.708 C 90.864 124.502,90.749 124.333,90.674 124.333 C 90.598 124.333,90.416 124.033,90.269 123.667 C 90.123 123.300,89.933 123.000,89.848 123.000 C 89.762 123.000,89.606 122.737,89.500 122.417 C 89.394 122.096,89.243 121.833,89.165 121.833 C 89.087 121.833,88.970 121.665,88.905 121.458 C 88.840 121.252,88.573 120.770,88.311 120.387 C 88.048 120.003,87.833 119.610,87.833 119.512 C 87.833 119.414,87.773 119.333,87.700 119.333 C 87.626 119.333,87.383 118.984,87.158 118.556 C 86.424 117.157,86.284 116.918,86.147 116.827 C 86.073 116.778,85.897 116.460,85.754 116.119 C 85.612 115.779,85.422 115.500,85.331 115.500 C 85.241 115.500,85.167 115.402,85.167 115.281 C 85.167 115.161,85.031 114.917,84.866 114.740 C 84.700 114.562,84.552 114.360,84.536 114.290 C 84.471 114.005,83.940 113.083,83.707 112.850 C 83.472 112.615,84.393 112.237,85.458 112.132 C 85.573 112.120,85.667 112.049,85.667 111.972 C 85.667 111.896,85.779 111.833,85.917 111.833 C 86.263 111.833,88.539 110.640,88.778 110.333 C 88.885 110.196,89.044 110.083,89.130 110.083 C 89.379 110.083,90.808 108.507,91.471 107.500 C 91.804 106.996,92.163 106.492,92.270 106.381 C 92.377 106.270,92.554 105.801,92.665 105.340 C 92.796 104.793,92.933 104.539,93.058 104.610 C 93.164 104.671,93.202 104.666,93.143 104.600 C 93.084 104.534,93.139 104.091,93.266 103.615 C 93.392 103.139,93.497 102.481,93.498 102.153 C 93.499 101.824,93.543 101.513,93.594 101.461 C 93.723 101.332,93.775 98.666,93.649 98.667 C 93.593 98.667,93.498 98.131,93.437 97.476 C 93.376 96.822,93.223 96.053,93.096 95.768 C 92.969 95.483,92.730 94.875,92.566 94.417 C 92.402 93.958,92.218 93.546,92.159 93.500 C 92.099 93.454,91.966 93.256,91.863 93.061 C 91.308 92.007,88.978 89.764,88.125 89.463 C 87.873 89.374,87.667 89.239,87.667 89.164 C 87.667 89.089,87.310 88.896,86.875 88.735 C 86.440 88.574,85.996 88.377,85.889 88.296 C 85.783 88.216,85.498 88.114,85.256 88.070 C 85.015 88.026,84.488 87.879,84.085 87.742 C 82.686 87.267,80.872 87.177,72.625 87.172 L 64.333 87.167 64.333 108.917 M174.167 92.083 L 174.167 96.333 171.917 96.333 L 169.667 96.333 169.667 98.917 C 169.667 100.337,169.723 101.491,169.792 101.480 C 169.860 101.469,170.870 101.469,172.034 101.480 L 174.152 101.500 174.201 113.141 C 174.237 121.616,174.302 124.846,174.442 125.016 C 174.548 125.145,174.722 125.578,174.829 125.978 C 174.936 126.378,175.094 126.791,175.181 126.895 C 175.268 126.998,175.563 127.402,175.837 127.791 C 176.111 128.180,176.653 128.723,177.042 128.996 C 177.432 129.270,177.828 129.558,177.922 129.637 C 178.017 129.715,178.317 129.835,178.589 129.902 C 178.861 129.970,179.346 130.151,179.667 130.305 C 180.167 130.543,180.881 130.583,184.667 130.583 L 189.083 130.583 189.129 128.042 L 189.175 125.500 186.328 125.500 C 183.461 125.500,182.033 125.308,181.783 124.890 C 181.710 124.767,181.539 124.667,181.404 124.667 C 181.269 124.667,181.087 124.479,181.000 124.250 C 180.913 124.021,180.760 123.833,180.661 123.833 C 180.562 123.833,180.529 123.755,180.588 123.659 C 180.647 123.564,180.595 123.365,180.473 123.217 C 180.293 123.001,180.241 120.873,180.201 112.227 L 180.153 101.505 184.618 101.461 L 189.083 101.417 189.083 98.917 L 189.083 96.417 184.625 96.372 L 180.167 96.328 180.167 92.081 L 180.167 87.833 177.167 87.833 L 174.167 87.833 174.167 92.083 M383.333 92.083 L 383.333 96.333 381.079 96.333 L 378.825 96.333 378.871 98.875 L 378.917 101.417 381.117 101.463 L 383.317 101.510 383.375 113.213 C 383.434 124.868,383.483 125.898,384.003 126.333 C 384.057 126.379,384.201 126.660,384.321 126.957 C 384.799 128.139,387.476 130.167,388.559 130.167 C 388.695 130.167,388.837 130.260,388.875 130.375 C 388.928 130.533,390.056 130.597,393.555 130.641 L 398.167 130.698 398.167 128.099 L 398.167 125.500 395.324 125.500 C 392.627 125.500,391.000 125.304,391.000 124.980 C 391.000 124.899,390.944 124.852,390.875 124.874 C 390.371 125.037,389.500 123.642,389.500 122.672 C 389.500 122.394,389.425 122.167,389.333 122.167 C 389.224 122.167,389.167 118.611,389.167 111.833 L 389.167 101.500 393.542 101.480 C 395.948 101.469,397.973 101.469,398.042 101.480 C 398.110 101.491,398.167 100.337,398.167 98.917 L 398.167 96.333 393.667 96.333 L 389.167 96.333 389.167 92.083 L 389.167 87.833 386.250 87.833 L 383.333 87.833 383.333 92.083 M81.909 92.608 C 82.546 92.737,83.184 92.941,83.326 93.061 C 83.467 93.180,83.817 93.371,84.104 93.484 C 84.773 93.748,85.859 94.824,86.264 95.625 C 86.438 95.969,86.666 96.362,86.771 96.500 C 87.831 97.887,87.408 102.987,86.083 104.798 C 85.576 105.492,84.589 106.471,84.470 106.398 C 84.395 106.352,84.333 106.388,84.333 106.478 C 84.333 106.658,83.406 107.167,83.078 107.167 C 82.966 107.167,82.787 107.272,82.680 107.401 C 82.310 107.846,80.429 108.000,75.361 108.000 L 70.333 108.000 70.333 100.169 L 70.333 92.339 74.875 92.294 C 79.842 92.246,80.206 92.262,81.909 92.608 M291.708 95.790 C 291.227 95.823,290.833 95.922,290.833 96.009 C 290.833 96.096,290.665 96.168,290.458 96.169 C 289.955 96.171,288.304 96.617,288.181 96.784 C 288.127 96.857,287.821 97.051,287.500 97.215 C 286.493 97.730,286.095 97.979,285.920 98.201 C 285.826 98.320,285.544 98.523,285.292 98.653 C 285.040 98.783,284.871 98.926,284.916 98.971 C 284.961 99.017,284.848 99.158,284.666 99.286 C 284.483 99.414,284.333 99.609,284.333 99.719 C 284.333 99.830,284.183 100.013,284.000 100.128 C 283.817 100.242,283.667 100.416,283.667 100.513 C 283.667 100.611,283.554 100.803,283.417 100.940 C 283.194 101.163,283.167 100.921,283.167 98.762 L 283.167 96.333 280.167 96.333 L 277.167 96.333 277.167 113.500 L 277.167 130.667 280.155 130.667 L 283.143 130.667 283.196 120.055 C 283.238 111.753,283.295 109.429,283.458 109.375 C 283.573 109.337,283.667 109.114,283.667 108.880 C 283.667 108.309,284.025 107.113,284.242 106.961 C 284.338 106.894,284.362 106.837,284.294 106.836 C 284.153 106.833,284.788 105.566,285.163 105.104 C 285.919 104.173,287.302 103.035,287.833 102.909 C 287.879 102.898,288.127 102.801,288.385 102.695 C 288.642 102.588,289.148 102.454,289.510 102.396 C 289.871 102.338,290.167 102.225,290.167 102.145 C 290.167 102.065,291.104 102.000,292.250 102.000 L 294.333 102.000 294.333 98.833 L 294.333 95.667 293.458 95.697 C 292.977 95.714,292.190 95.756,291.708 95.790 M356.792 95.777 C 356.356 95.818,356.000 95.913,356.000 95.988 C 356.000 96.063,355.681 96.172,355.292 96.230 C 354.355 96.371,353.167 96.713,353.167 96.843 C 353.167 96.900,352.867 97.046,352.500 97.167 C 352.133 97.288,351.833 97.445,351.833 97.515 C 351.833 97.586,351.665 97.695,351.458 97.757 C 351.252 97.819,350.933 98.010,350.750 98.181 C 350.567 98.353,350.014 98.851,349.522 99.288 C 349.030 99.725,348.566 100.233,348.491 100.417 C 348.410 100.615,348.350 99.856,348.344 98.542 L 348.333 96.333 345.333 96.333 L 342.333 96.333 342.333 113.500 L 342.333 130.667 345.321 130.667 L 348.310 130.667 348.374 119.958 C 348.436 109.575,348.535 107.533,348.993 107.167 C 349.050 107.121,349.200 106.765,349.325 106.375 C 349.451 105.985,349.607 105.667,349.673 105.667 C 349.739 105.667,349.885 105.444,349.998 105.171 C 350.111 104.898,350.352 104.504,350.533 104.296 C 350.714 104.087,350.912 103.839,350.973 103.744 C 351.144 103.477,352.772 102.333,352.981 102.333 C 353.083 102.333,353.167 102.273,353.167 102.200 C 353.167 102.044,354.618 101.498,355.028 101.499 C 355.181 101.500,355.336 101.410,355.372 101.299 C 355.473 100.997,360.129 101.003,360.317 101.306 C 360.392 101.428,360.521 101.523,360.602 101.517 C 360.948 101.491,362.653 102.053,362.581 102.170 C 362.538 102.240,362.685 102.344,362.908 102.400 C 363.355 102.512,365.214 104.246,365.383 104.708 C 365.442 104.869,365.555 105.000,365.634 105.000 C 365.714 105.000,365.922 105.431,366.097 105.958 C 366.272 106.485,366.459 106.954,366.513 107.000 C 366.707 107.165,367.000 109.080,367.000 110.185 C 367.000 110.806,367.075 111.360,367.167 111.417 C 367.275 111.483,367.333 114.891,367.333 121.093 L 367.333 130.667 370.250 130.667 L 373.167 130.667 373.167 120.134 C 373.167 110.057,373.014 105.833,372.646 105.694 C 372.565 105.663,372.542 105.566,372.597 105.478 C 372.651 105.391,372.624 105.228,372.537 105.118 C 372.450 105.007,372.326 104.692,372.260 104.417 C 372.149 103.952,371.422 102.370,370.950 101.567 C 370.501 100.803,369.573 99.720,368.894 99.167 C 368.500 98.846,367.990 98.420,367.761 98.221 C 367.532 98.022,367.192 97.811,367.005 97.752 C 366.819 97.693,366.667 97.580,366.667 97.502 C 366.667 97.424,366.441 97.310,366.165 97.250 C 365.889 97.189,365.570 97.052,365.457 96.945 C 365.170 96.675,364.240 96.377,363.250 96.238 C 362.792 96.173,362.374 96.055,362.322 95.975 C 362.217 95.812,358.017 95.662,356.792 95.777 M113.833 96.000 C 113.833 96.092,113.590 96.168,113.292 96.169 C 112.640 96.172,110.676 96.619,110.427 96.821 C 110.330 96.901,109.931 97.060,109.542 97.176 C 109.152 97.291,108.833 97.443,108.833 97.513 C 108.833 97.584,108.579 97.725,108.268 97.828 C 107.957 97.930,107.492 98.194,107.236 98.414 C 106.980 98.634,106.714 98.779,106.644 98.736 C 106.574 98.693,106.435 98.809,106.336 98.995 C 106.236 99.181,106.085 99.333,106.000 99.333 C 105.771 99.333,103.833 101.238,103.833 101.463 C 103.833 101.568,103.683 101.735,103.500 101.833 C 103.317 101.931,103.167 102.118,103.167 102.248 C 103.167 102.377,103.073 102.543,102.958 102.617 C 102.844 102.690,102.451 103.350,102.085 104.083 C 101.719 104.817,101.378 105.454,101.327 105.500 C 101.193 105.620,100.667 107.601,100.667 107.984 C 100.667 108.161,100.597 108.331,100.513 108.361 C 99.914 108.577,99.884 118.257,100.481 118.663 C 100.551 118.711,100.743 119.313,100.908 120.000 C 101.072 120.688,101.254 121.287,101.312 121.333 C 101.471 121.460,102.064 122.733,102.030 122.875 C 102.014 122.944,102.069 123.000,102.154 123.000 C 102.238 123.000,102.394 123.263,102.500 123.583 C 102.606 123.904,102.753 124.167,102.826 124.167 C 102.899 124.167,103.051 124.388,103.163 124.659 C 103.275 124.929,103.546 125.268,103.766 125.412 C 103.985 125.555,104.146 125.728,104.124 125.795 C 104.102 125.862,104.140 125.917,104.210 125.917 C 104.279 125.917,104.480 126.154,104.657 126.443 C 104.833 126.733,105.133 127.020,105.324 127.080 C 105.515 127.141,105.628 127.260,105.576 127.345 C 105.523 127.430,105.593 127.500,105.731 127.500 C 105.868 127.500,106.079 127.636,106.199 127.803 C 106.319 127.969,106.679 128.251,107.000 128.428 C 107.321 128.605,107.622 128.801,107.669 128.863 C 107.835 129.082,109.644 129.968,110.153 130.080 C 110.435 130.142,110.667 130.252,110.667 130.324 C 110.667 130.481,113.194 131.000,113.958 131.000 C 114.256 131.000,114.500 131.075,114.500 131.167 C 114.500 131.270,115.444 131.333,117.000 131.333 C 118.556 131.333,119.500 131.270,119.500 131.167 C 119.500 131.075,119.756 131.000,120.069 131.000 C 120.927 131.000,123.242 130.523,123.306 130.333 C 123.336 130.242,123.478 130.167,123.621 130.167 C 123.988 130.167,126.321 129.024,126.726 128.647 C 126.911 128.474,127.134 128.333,127.221 128.333 C 127.307 128.333,127.548 128.165,127.755 127.958 C 127.963 127.752,128.515 127.246,128.983 126.834 C 129.451 126.422,129.833 125.996,129.833 125.888 C 129.833 125.780,130.011 125.551,130.228 125.381 C 130.444 125.210,130.674 124.905,130.739 124.702 C 130.803 124.499,130.914 124.333,130.986 124.333 C 131.057 124.333,131.251 124.033,131.417 123.667 C 131.582 123.300,131.781 123.000,131.859 123.000 C 131.936 123.000,131.985 122.944,131.966 122.875 C 131.918 122.699,132.344 121.458,132.536 121.216 C 132.624 121.105,132.647 120.936,132.588 120.841 C 132.529 120.745,132.560 120.667,132.657 120.667 C 132.754 120.667,132.833 120.479,132.833 120.250 L 132.833 119.833 129.708 119.836 C 126.287 119.839,126.333 119.828,125.998 120.667 C 125.869 120.987,125.667 121.349,125.549 121.470 C 125.430 121.591,125.333 121.795,125.333 121.923 C 125.333 122.050,125.183 122.235,125.000 122.333 C 124.817 122.431,124.667 122.610,124.667 122.730 C 124.667 122.997,123.171 124.308,122.492 124.637 C 122.221 124.768,122.000 124.931,122.000 124.999 C 122.000 125.067,121.644 125.215,121.208 125.328 C 120.773 125.440,120.304 125.575,120.167 125.627 C 120.029 125.679,119.879 125.729,119.833 125.738 C 119.787 125.747,119.640 125.825,119.505 125.910 C 119.115 126.157,114.929 126.120,114.624 125.867 C 114.483 125.750,114.304 125.670,114.226 125.687 C 114.147 125.705,113.971 125.678,113.833 125.626 C 113.696 125.575,113.225 125.440,112.787 125.327 C 112.350 125.214,111.951 125.055,111.901 124.975 C 111.851 124.894,111.535 124.683,111.197 124.505 C 110.859 124.327,110.348 123.972,110.061 123.716 C 109.774 123.460,109.361 123.092,109.144 122.899 C 108.610 122.422,108.142 121.834,108.293 121.828 C 108.361 121.825,108.285 121.747,108.125 121.653 C 107.965 121.560,107.833 121.380,107.833 121.254 C 107.833 121.127,107.736 120.925,107.616 120.804 C 107.332 120.515,106.833 119.252,106.833 118.820 C 106.833 118.633,106.767 118.521,106.686 118.572 C 106.604 118.622,106.486 118.232,106.423 117.706 C 106.360 117.180,106.269 116.581,106.220 116.375 L 106.131 116.000 119.524 115.995 C 130.529 115.990,132.970 115.949,133.214 115.764 C 133.523 115.529,133.658 109.216,133.350 109.406 C 133.283 109.448,133.133 108.811,133.017 107.991 C 132.901 107.171,132.733 106.500,132.643 106.500 C 132.554 106.500,132.523 106.432,132.574 106.348 C 132.626 106.265,132.561 105.983,132.431 105.723 C 132.301 105.463,131.951 104.744,131.655 104.125 C 131.359 103.506,131.071 103.000,131.016 103.000 C 130.960 103.000,130.812 102.769,130.687 102.486 C 130.435 101.916,130.214 101.649,128.949 100.384 C 127.769 99.204,127.476 98.957,126.912 98.667 C 126.645 98.529,126.301 98.293,126.147 98.142 C 125.993 97.991,125.635 97.816,125.350 97.754 C 125.066 97.691,124.833 97.574,124.833 97.493 C 124.833 97.413,124.515 97.254,124.125 97.140 C 123.735 97.026,123.379 96.883,123.333 96.822 C 123.215 96.665,121.149 96.167,120.614 96.167 C 120.368 96.167,120.167 96.092,120.167 96.000 C 120.167 95.895,119.000 95.833,117.000 95.833 C 115.000 95.833,113.833 95.895,113.833 96.000 M149.167 96.000 C 149.167 96.092,148.971 96.167,148.732 96.167 C 148.139 96.167,146.000 96.693,146.000 96.839 C 146.000 96.904,145.662 97.051,145.250 97.167 C 144.837 97.282,144.500 97.428,144.500 97.491 C 144.500 97.554,144.237 97.730,143.917 97.883 C 143.596 98.036,143.333 98.237,143.333 98.331 C 143.333 98.424,143.232 98.500,143.107 98.500 C 142.828 98.500,141.167 100.139,141.167 100.415 C 141.167 100.525,141.017 100.751,140.833 100.917 C 140.650 101.083,140.500 101.314,140.500 101.431 C 140.500 101.547,140.401 101.742,140.280 101.863 C 140.018 102.125,139.667 103.440,139.667 104.157 C 139.667 104.437,139.592 104.667,139.500 104.667 C 139.408 104.667,139.333 105.037,139.333 105.490 C 139.333 105.943,139.408 106.360,139.500 106.417 C 139.592 106.473,139.667 106.782,139.667 107.103 C 139.667 107.882,140.007 109.197,140.280 109.470 C 140.401 109.591,140.500 109.788,140.500 109.908 C 140.500 110.201,142.275 112.188,142.816 112.500 C 143.055 112.638,143.289 112.802,143.337 112.865 C 143.541 113.135,144.680 113.816,145.273 114.023 C 145.627 114.147,145.954 114.293,146.000 114.347 C 146.089 114.452,147.282 114.804,148.040 114.950 C 148.291 114.998,148.454 115.106,148.403 115.189 C 148.351 115.273,148.370 115.324,148.446 115.304 C 148.631 115.252,150.374 115.680,150.583 115.828 C 150.675 115.893,151.406 116.080,152.208 116.244 C 153.010 116.408,153.667 116.592,153.667 116.654 C 153.667 116.715,154.117 116.864,154.667 116.986 C 155.217 117.108,155.667 117.274,155.667 117.354 C 155.667 117.434,155.723 117.484,155.792 117.464 C 156.006 117.403,157.500 118.037,157.500 118.189 C 157.500 118.269,157.597 118.333,157.716 118.333 C 159.067 118.333,160.158 121.872,159.168 123.044 C 159.073 123.157,158.824 123.513,158.616 123.833 C 158.408 124.154,158.034 124.515,157.785 124.634 C 157.537 124.754,157.333 124.910,157.333 124.982 C 157.333 125.054,157.015 125.214,156.625 125.337 C 156.235 125.460,155.823 125.631,155.708 125.717 C 155.594 125.803,155.500 125.818,155.500 125.750 C 155.500 125.682,155.381 125.724,155.237 125.845 C 154.886 126.135,150.803 126.154,150.456 125.866 C 150.326 125.758,150.172 125.717,150.114 125.775 C 150.056 125.833,149.912 125.809,149.796 125.720 C 149.679 125.632,149.268 125.461,148.884 125.340 C 148.499 125.218,148.145 125.017,148.097 124.893 C 148.050 124.768,147.906 124.667,147.779 124.667 C 147.471 124.667,145.874 123.059,145.733 122.607 C 145.672 122.410,145.555 122.207,145.473 122.154 C 145.391 122.101,145.279 121.670,145.222 121.196 L 145.120 120.333 141.977 120.333 L 138.833 120.333 138.835 120.708 C 138.837 121.455,139.189 123.251,139.344 123.306 C 139.431 123.337,139.466 123.420,139.422 123.492 C 139.378 123.563,139.490 123.928,139.671 124.303 C 139.852 124.677,140.000 125.063,140.000 125.159 C 140.000 125.255,140.070 125.333,140.155 125.333 C 140.241 125.333,140.363 125.498,140.427 125.698 C 140.534 126.036,142.241 127.812,143.199 128.583 C 143.648 128.944,146.036 130.167,146.292 130.167 C 146.378 130.167,146.683 130.284,146.969 130.426 C 147.256 130.569,148.130 130.773,148.912 130.880 C 149.694 130.987,150.333 131.132,150.333 131.204 C 150.333 131.275,151.458 131.333,152.833 131.333 C 154.389 131.333,155.333 131.270,155.333 131.167 C 155.333 131.075,155.577 130.997,155.875 130.994 C 156.580 130.987,158.440 130.586,158.708 130.384 C 158.823 130.298,159.235 130.126,159.625 130.003 C 160.015 129.880,160.333 129.722,160.333 129.651 C 160.333 129.580,160.502 129.471,160.708 129.408 C 160.915 129.345,161.215 129.179,161.375 129.038 C 161.535 128.897,161.667 128.823,161.667 128.874 C 161.667 129.077,163.936 126.680,164.168 126.232 C 164.305 125.967,164.508 125.653,164.620 125.535 C 164.732 125.417,164.915 124.873,165.028 124.327 C 165.141 123.780,165.297 123.333,165.374 123.333 C 165.452 123.333,165.504 122.396,165.490 121.250 C 165.476 120.104,165.404 119.167,165.330 119.167 C 165.256 119.167,165.145 118.865,165.083 118.497 C 165.021 118.128,164.861 117.718,164.729 117.586 C 164.596 117.454,164.492 117.304,164.497 117.254 C 164.518 117.053,163.981 116.167,163.838 116.167 C 163.754 116.167,163.553 115.942,163.390 115.667 C 163.228 115.392,163.033 115.167,162.958 115.167 C 162.883 115.167,162.618 114.960,162.369 114.708 C 162.119 114.456,161.617 114.100,161.252 113.917 C 160.887 113.733,160.491 113.493,160.372 113.382 C 160.253 113.271,159.896 113.131,159.578 113.071 C 159.260 113.012,159.000 112.909,159.000 112.843 C 159.000 112.731,158.014 112.430,156.958 112.220 C 156.706 112.170,156.500 112.070,156.500 111.999 C 156.500 111.928,156.012 111.773,155.417 111.654 C 154.821 111.536,154.333 111.378,154.333 111.303 C 154.333 111.228,154.277 111.181,154.208 111.199 C 154.011 111.251,151.426 110.610,151.333 110.486 C 151.287 110.425,150.987 110.319,150.667 110.251 C 150.346 110.182,149.887 110.026,149.646 109.903 C 149.406 109.780,149.162 109.727,149.104 109.784 C 149.047 109.842,149.000 109.810,149.000 109.713 C 149.000 109.616,148.824 109.492,148.610 109.438 C 148.395 109.384,147.964 109.115,147.652 108.839 C 147.339 108.564,146.990 108.337,146.875 108.336 C 146.760 108.335,146.667 108.270,146.667 108.192 C 146.667 108.115,146.517 107.879,146.334 107.668 C 145.529 106.740,145.467 104.029,146.236 103.417 C 146.351 103.325,146.535 103.081,146.645 102.875 C 146.755 102.669,146.951 102.500,147.081 102.500 C 147.211 102.500,147.377 102.399,147.450 102.276 C 147.523 102.153,147.958 101.913,148.417 101.743 C 148.875 101.573,149.303 101.355,149.369 101.259 C 149.879 100.506,156.030 101.372,156.550 102.270 C 156.623 102.396,156.760 102.500,156.854 102.500 C 157.064 102.500,158.000 103.417,158.000 103.622 C 158.000 103.704,158.154 103.936,158.343 104.138 C 158.533 104.343,158.764 104.932,158.861 105.462 C 159.147 107.015,158.914 106.911,162.226 106.962 L 165.167 107.008 165.167 106.427 C 165.167 105.484,164.805 103.333,164.646 103.333 C 164.566 103.333,164.516 103.277,164.536 103.208 C 164.587 103.029,163.975 101.500,163.851 101.500 C 163.795 101.500,163.640 101.256,163.509 100.958 C 163.291 100.466,161.143 98.167,160.900 98.167 C 160.844 98.167,160.466 97.942,160.060 97.668 C 159.654 97.394,159.118 97.120,158.869 97.059 C 158.620 96.998,158.370 96.878,158.314 96.792 C 158.197 96.613,156.320 96.181,155.625 96.173 C 155.373 96.169,155.167 96.092,155.167 96.000 C 155.167 95.895,154.056 95.833,152.167 95.833 C 150.278 95.833,149.167 95.895,149.167 96.000 M206.908 95.976 C 206.821 96.055,206.243 96.200,205.624 96.298 C 205.004 96.396,204.274 96.588,204.000 96.725 C 203.727 96.861,203.278 97.022,203.004 97.083 C 202.729 97.143,202.461 97.261,202.409 97.346 C 202.357 97.430,201.944 97.658,201.491 97.853 C 201.037 98.048,200.667 98.261,200.667 98.326 C 200.667 98.391,200.280 98.695,199.807 99.001 C 199.334 99.307,198.807 99.720,198.635 99.917 C 198.463 100.115,197.950 100.680,197.494 101.173 C 197.039 101.665,196.667 102.165,196.667 102.284 C 196.667 102.403,196.597 102.500,196.512 102.500 C 196.364 102.500,196.201 102.767,195.443 104.250 C 195.255 104.617,195.055 104.954,194.997 105.000 C 194.939 105.046,194.791 105.458,194.667 105.917 C 194.543 106.375,194.386 106.788,194.318 106.834 C 194.150 106.950,193.667 109.552,193.667 110.342 C 193.667 110.693,193.592 111.027,193.500 111.083 C 193.402 111.144,193.333 112.137,193.333 113.500 C 193.333 114.863,193.402 115.856,193.500 115.917 C 193.592 115.973,193.667 116.259,193.666 116.552 C 193.666 117.347,194.181 120.000,194.336 120.000 C 194.410 120.000,194.522 120.301,194.584 120.670 C 194.646 121.038,194.787 121.432,194.897 121.545 C 195.006 121.658,195.231 122.106,195.395 122.542 C 195.560 122.977,195.763 123.333,195.847 123.333 C 195.931 123.333,196.000 123.436,196.000 123.560 C 196.000 123.685,196.222 124.079,196.494 124.435 C 196.766 124.792,197.122 125.268,197.286 125.493 C 197.663 126.013,199.323 127.645,199.919 128.083 C 200.169 128.267,200.496 128.529,200.647 128.667 C 200.987 128.977,203.352 130.167,203.629 130.167 C 203.742 130.167,203.833 130.230,203.833 130.308 C 203.833 130.473,206.119 131.000,206.838 131.000 C 207.110 131.000,207.333 131.075,207.333 131.167 C 207.333 131.270,208.250 131.333,209.750 131.333 C 211.079 131.333,212.167 131.275,212.167 131.203 C 212.167 131.132,212.775 130.978,213.518 130.861 C 214.261 130.744,215.141 130.503,215.473 130.324 C 215.806 130.146,216.205 130.000,216.361 130.000 C 216.516 130.000,216.742 129.903,216.863 129.785 C 216.984 129.667,217.365 129.439,217.708 129.278 C 218.052 129.116,218.333 128.913,218.333 128.826 C 218.333 128.738,218.419 128.667,218.525 128.667 C 218.904 128.667,220.514 127.208,221.744 125.750 L 222.166 125.250 222.166 127.958 L 222.167 130.667 225.250 130.667 L 228.333 130.667 228.333 113.500 L 228.333 96.333 225.250 96.333 L 222.167 96.333 222.161 99.042 L 222.156 101.750 221.797 101.268 C 221.334 100.647,219.499 98.833,219.334 98.833 C 219.264 98.833,219.110 98.715,218.990 98.571 C 218.870 98.427,218.467 98.154,218.094 97.965 C 217.722 97.776,217.379 97.574,217.333 97.516 C 217.123 97.247,214.971 96.467,213.958 96.293 C 213.340 96.186,212.833 96.039,212.833 95.966 C 212.833 95.786,207.108 95.796,206.908 95.976 M311.500 95.996 C 311.362 96.075,310.594 96.267,309.792 96.424 C 308.990 96.581,308.333 96.756,308.333 96.814 C 308.333 96.872,308.028 97.014,307.655 97.131 C 307.282 97.247,306.888 97.417,306.780 97.508 C 306.615 97.647,305.117 98.651,304.179 99.251 C 303.789 99.501,302.000 101.279,302.000 101.416 C 302.000 101.518,301.741 101.873,300.999 102.783 C 300.909 102.893,300.709 103.249,300.554 103.575 C 300.399 103.900,300.220 104.167,300.157 104.167 C 300.095 104.167,299.948 104.506,299.832 104.921 C 299.716 105.336,299.555 105.716,299.474 105.766 C 299.394 105.816,299.371 105.926,299.424 106.012 C 299.477 106.097,299.452 106.167,299.370 106.167 C 299.287 106.167,299.126 106.598,299.012 107.125 C 298.898 107.652,298.737 108.212,298.654 108.369 C 298.053 109.518,298.054 118.086,298.656 118.500 C 298.723 118.546,298.875 119.052,298.995 119.625 C 299.114 120.198,299.277 120.667,299.356 120.667 C 299.435 120.667,299.484 120.723,299.464 120.792 C 299.403 121.005,300.053 122.555,300.453 123.148 C 300.662 123.459,300.833 123.815,300.833 123.940 C 300.833 124.065,300.896 124.167,300.972 124.167 C 301.048 124.167,301.217 124.373,301.347 124.625 C 301.477 124.877,301.715 125.181,301.875 125.301 C 302.035 125.421,302.167 125.591,302.167 125.680 C 302.167 125.870,303.991 127.667,304.184 127.667 C 304.257 127.667,304.377 127.766,304.450 127.886 C 304.745 128.372,307.809 130.167,308.344 130.167 C 308.506 130.167,308.664 130.242,308.694 130.333 C 308.755 130.514,310.801 130.992,311.532 130.997 C 311.779 130.999,312.027 131.075,312.083 131.167 C 312.144 131.265,313.141 131.333,314.510 131.333 C 315.948 131.333,316.833 131.270,316.833 131.167 C 316.833 131.075,317.056 131.000,317.329 131.000 C 317.997 131.000,320.333 130.479,320.333 130.329 C 320.333 130.264,320.671 130.115,321.083 130.000 C 321.496 129.885,321.833 129.736,321.833 129.670 C 321.833 129.604,322.133 129.415,322.500 129.250 C 322.867 129.085,323.167 128.898,323.167 128.836 C 323.167 128.774,323.373 128.618,323.625 128.489 C 324.174 128.208,326.386 126.038,326.544 125.625 C 326.866 124.786,327.000 125.484,327.000 128.004 L 327.000 130.674 330.042 130.629 L 333.083 130.583 333.083 113.500 L 333.083 96.417 330.042 96.371 L 327.000 96.326 327.000 98.996 C 327.000 101.637,326.899 102.087,326.482 101.292 C 326.045 100.458,323.561 98.255,322.549 97.803 C 322.163 97.631,321.807 97.426,321.758 97.347 C 321.710 97.268,321.464 97.152,321.212 97.089 C 320.960 97.025,320.709 96.902,320.654 96.814 C 320.600 96.726,319.924 96.535,319.153 96.390 C 318.381 96.244,317.620 96.060,317.461 95.979 C 317.089 95.792,311.831 95.807,311.500 95.996 M237.167 106.476 C 237.167 115.839,237.328 120.775,237.641 120.995 C 237.710 121.043,237.856 121.481,237.966 121.966 C 238.147 122.771,238.917 124.632,239.153 124.833 C 239.207 124.879,239.362 125.142,239.498 125.417 C 239.767 125.961,239.920 126.150,241.157 127.458 C 241.612 127.940,242.058 128.333,242.149 128.333 C 242.240 128.333,242.412 128.465,242.532 128.625 C 242.763 128.934,245.105 130.169,245.458 130.167 C 245.573 130.167,245.667 130.231,245.667 130.311 C 245.667 130.478,248.161 131.000,248.958 131.000 C 249.256 131.000,249.500 131.075,249.500 131.167 C 249.500 131.268,250.222 131.333,251.333 131.333 C 252.444 131.333,253.167 131.268,253.167 131.167 C 253.167 131.075,253.433 131.000,253.759 131.000 C 254.567 131.000,256.667 130.509,256.667 130.320 C 256.667 130.236,256.760 130.166,256.875 130.166 C 257.157 130.165,259.188 129.134,259.592 128.786 C 260.367 128.120,261.767 126.712,261.954 126.411 C 262.120 126.144,262.151 126.511,262.121 128.375 L 262.083 130.667 265.042 130.667 L 268.000 130.667 268.000 113.500 L 268.000 96.333 265.042 96.333 L 262.083 96.333 262.138 105.375 C 262.191 114.183,262.128 115.861,261.637 118.792 C 261.541 119.365,261.411 119.833,261.349 119.833 C 261.287 119.833,261.148 120.163,261.040 120.566 C 260.932 120.969,260.748 121.401,260.630 121.525 C 260.513 121.649,260.304 121.969,260.167 122.236 C 259.782 122.983,257.956 124.667,257.530 124.667 C 257.435 124.667,257.258 124.765,257.137 124.884 C 256.849 125.169,254.879 125.738,254.292 125.705 C 254.040 125.691,253.833 125.752,253.833 125.840 C 253.833 125.929,253.240 126.000,252.500 126.000 C 251.732 126.000,251.167 125.930,251.167 125.835 C 251.167 125.745,250.998 125.676,250.792 125.683 C 250.293 125.700,248.286 125.190,248.173 125.018 C 248.123 124.944,247.789 124.744,247.430 124.575 C 246.641 124.205,245.124 122.701,244.835 122.004 C 244.720 121.727,244.570 121.500,244.501 121.500 C 244.433 121.500,244.282 121.162,244.167 120.750 C 244.051 120.337,243.901 120.000,243.832 120.000 C 243.450 120.000,243.333 116.926,243.333 106.910 L 243.333 96.333 240.250 96.333 L 237.167 96.333 237.167 106.476 M28.300 98.955 C 27.529 99.017,27.025 99.526,27.453 99.812 C 27.539 99.870,27.709 100.685,27.831 101.625 C 27.954 102.565,28.101 103.333,28.158 103.333 C 28.215 103.333,28.404 104.383,28.577 105.667 C 28.751 106.950,28.940 108.000,28.998 108.000 C 29.056 108.000,29.204 108.806,29.328 109.792 C 29.451 110.777,29.605 111.621,29.669 111.667 C 29.767 111.737,30.373 115.508,30.385 116.125 C 30.387 116.240,30.440 116.333,30.503 116.333 C 30.566 116.333,30.715 117.121,30.833 118.083 C 30.952 119.046,31.099 119.833,31.161 119.833 C 31.222 119.833,31.409 120.865,31.577 122.125 C 31.745 123.385,31.933 124.454,31.994 124.500 C 32.114 124.590,32.674 127.819,32.688 128.500 C 32.692 128.729,32.757 128.992,32.831 129.083 C 32.904 129.175,33.056 129.962,33.168 130.833 C 33.280 131.704,33.423 132.454,33.487 132.500 C 33.551 132.546,33.735 133.556,33.898 134.745 C 34.060 135.934,34.242 136.984,34.304 137.078 C 34.365 137.173,34.502 137.841,34.607 138.563 C 34.809 139.943,34.981 140.198,35.667 140.127 C 36.088 140.083,36.253 137.272,35.850 137.004 C 35.777 136.956,35.667 136.429,35.605 135.833 C 35.124 131.208,35.117 131.157,34.976 130.917 C 34.922 130.825,34.780 129.775,34.659 128.583 C 34.539 127.392,34.391 126.379,34.330 126.333 C 34.242 126.267,33.639 121.226,33.617 120.375 C 33.614 120.260,33.560 120.167,33.497 120.167 C 33.435 120.167,33.286 119.154,33.167 117.917 C 33.047 116.679,32.899 115.667,32.837 115.667 C 32.776 115.667,32.586 114.298,32.416 112.625 C 32.246 110.952,32.057 109.546,31.996 109.500 C 31.936 109.454,31.794 108.479,31.682 107.333 C 31.570 106.188,31.432 105.138,31.375 105.000 C 31.318 104.862,31.250 104.487,31.224 104.167 C 31.198 103.846,31.046 102.515,30.885 101.208 L 30.592 98.833 29.838 98.863 C 29.423 98.880,28.731 98.921,28.300 98.955 M22.872 99.375 C 22.770 99.581,22.596 101.287,22.485 103.167 C 22.374 105.046,22.218 106.668,22.137 106.772 C 22.057 106.876,21.998 107.364,22.007 107.856 C 22.033 109.306,21.457 116.245,21.306 116.306 C 21.229 116.336,21.168 116.636,21.170 116.972 C 21.177 118.227,20.598 126.087,20.493 126.167 C 20.432 126.212,20.284 127.881,20.163 129.875 C 20.042 131.869,19.895 133.500,19.836 133.500 C 19.686 133.500,19.272 140.266,19.409 140.487 C 19.470 140.586,19.699 140.667,19.919 140.667 C 20.529 140.667,20.781 139.883,21.018 137.250 C 21.133 135.967,21.279 134.879,21.341 134.833 C 21.403 134.787,21.588 133.325,21.752 131.583 C 21.916 129.842,22.106 128.342,22.175 128.250 C 22.244 128.158,22.388 127.071,22.494 125.833 C 22.601 124.596,22.754 123.433,22.835 123.250 C 22.916 123.067,23.111 121.604,23.268 120.000 C 23.426 118.396,23.605 117.046,23.668 117.000 C 23.730 116.954,23.879 115.773,23.999 114.375 C 24.119 112.977,24.281 111.833,24.359 111.833 C 24.436 111.833,24.485 111.777,24.467 111.708 C 24.396 111.438,25.067 105.500,25.169 105.500 C 25.229 105.500,25.281 105.406,25.285 105.292 C 25.328 104.007,25.755 100.333,25.861 100.333 C 26.055 100.333,26.035 99.709,25.827 99.322 C 25.549 98.802,23.133 98.845,22.872 99.375 M119.741 101.326 C 119.862 101.426,120.388 101.619,120.910 101.755 C 121.432 101.891,121.972 102.115,122.108 102.251 C 122.245 102.388,122.435 102.500,122.530 102.500 C 123.344 102.500,127.186 106.987,126.385 107.003 C 126.311 107.004,126.343 107.064,126.457 107.137 C 126.571 107.209,126.746 107.714,126.844 108.259 C 126.943 108.804,127.093 109.380,127.179 109.539 C 127.264 109.699,127.333 110.055,127.333 110.331 L 127.333 110.833 116.810 110.833 L 106.286 110.833 106.395 109.792 C 106.454 109.219,106.578 108.725,106.668 108.694 C 106.759 108.664,106.833 108.508,106.833 108.349 C 106.833 107.895,107.348 106.500,107.516 106.500 C 107.599 106.500,107.667 106.397,107.667 106.271 C 107.667 105.625,110.679 102.500,111.301 102.500 C 111.397 102.500,111.581 102.395,111.710 102.266 C 111.957 102.019,113.343 101.500,113.756 101.500 C 113.890 101.500,114.000 101.430,114.000 101.343 C 114.000 100.984,119.310 100.968,119.741 101.326 M213.000 101.333 C 213.000 101.425,213.157 101.500,213.349 101.500 C 213.792 101.500,215.556 102.005,215.667 102.163 C 215.713 102.228,215.941 102.387,216.175 102.516 C 217.666 103.337,218.476 104.022,219.600 105.417 C 220.350 106.346,221.031 107.580,220.878 107.733 C 220.823 107.788,220.856 107.833,220.951 107.833 C 221.046 107.833,221.221 108.190,221.341 108.625 C 221.461 109.060,221.623 109.460,221.702 109.513 C 222.232 109.872,222.218 117.159,221.686 117.488 C 221.598 117.542,221.475 117.811,221.412 118.085 C 221.246 118.806,220.314 120.727,220.054 120.883 C 219.933 120.957,219.832 121.107,219.831 121.217 C 219.828 121.384,219.449 121.894,218.689 122.750 C 218.416 123.058,217.833 123.498,217.833 123.397 C 217.833 123.341,217.702 123.452,217.542 123.642 C 216.823 124.492,213.884 125.722,212.628 125.698 C 212.377 125.693,212.129 125.759,212.076 125.845 C 211.944 126.059,209.712 126.042,209.578 125.825 C 209.519 125.729,209.346 125.669,209.194 125.691 C 208.774 125.753,206.333 125.164,206.333 125.002 C 206.333 124.923,206.079 124.775,205.767 124.672 C 205.456 124.570,205.042 124.357,204.849 124.201 C 204.655 124.045,204.300 123.767,204.059 123.583 C 203.489 123.149,202.500 122.202,202.500 122.090 C 202.500 122.042,202.237 121.659,201.917 121.239 C 201.596 120.818,201.333 120.368,201.333 120.237 C 201.333 120.107,201.277 120.000,201.208 119.999 C 201.140 119.999,200.944 119.643,200.774 119.208 C 200.604 118.773,200.364 118.188,200.240 117.908 C 200.117 117.629,199.964 116.896,199.901 116.279 C 199.838 115.662,199.722 115.117,199.643 115.069 C 199.439 114.942,199.461 111.833,199.667 111.833 C 199.758 111.833,199.833 111.583,199.833 111.278 C 199.833 110.483,200.186 108.833,200.356 108.833 C 200.435 108.833,200.484 108.777,200.466 108.708 C 200.404 108.484,201.023 106.833,201.169 106.833 C 201.247 106.833,201.356 106.690,201.412 106.515 C 201.507 106.215,201.911 105.646,202.933 104.375 C 203.172 104.077,203.477 103.833,203.611 103.833 C 203.744 103.833,203.812 103.767,203.761 103.685 C 203.711 103.603,203.931 103.412,204.251 103.260 C 204.571 103.109,204.833 102.925,204.833 102.852 C 204.833 102.779,205.133 102.621,205.500 102.500 C 205.867 102.379,206.167 102.219,206.167 102.145 C 206.167 102.002,207.744 101.499,208.327 101.455 C 208.514 101.441,208.667 101.370,208.667 101.298 C 208.667 101.226,209.642 101.167,210.833 101.167 C 212.167 101.167,213.000 101.231,213.000 101.333 M317.925 101.307 C 318.012 101.384,318.590 101.580,319.208 101.742 C 319.827 101.904,320.333 102.104,320.333 102.185 C 320.333 102.267,320.435 102.333,320.558 102.333 C 320.682 102.333,321.094 102.558,321.474 102.833 C 321.853 103.108,322.236 103.333,322.324 103.333 C 322.412 103.333,322.543 103.435,322.617 103.559 C 322.690 103.683,322.919 103.873,323.125 103.982 C 323.331 104.090,323.500 104.280,323.500 104.403 C 323.500 104.527,323.688 104.751,323.917 104.901 C 324.146 105.051,324.333 105.285,324.333 105.421 C 324.333 105.556,324.410 105.667,324.503 105.667 C 324.596 105.667,324.802 105.948,324.961 106.292 C 325.120 106.635,325.298 106.954,325.356 107.000 C 325.450 107.073,326.024 108.279,326.071 108.500 C 326.081 108.546,326.142 108.668,326.208 108.771 C 326.274 108.874,326.412 109.511,326.515 110.187 C 326.618 110.864,326.769 111.547,326.851 111.706 C 327.042 112.076,327.047 114.951,326.857 115.069 C 326.778 115.117,326.662 115.657,326.600 116.267 C 326.537 116.878,326.389 117.611,326.269 117.897 C 326.150 118.183,326.048 118.454,326.043 118.500 C 326.029 118.632,325.426 119.908,325.333 120.000 C 325.287 120.046,325.100 120.381,324.917 120.744 C 324.733 121.107,324.393 121.595,324.160 121.827 C 323.928 122.060,323.607 122.456,323.448 122.708 C 323.289 122.960,323.065 123.167,322.950 123.167 C 322.835 123.167,322.622 123.298,322.478 123.458 C 322.045 123.937,321.621 124.239,320.917 124.570 C 320.550 124.742,320.212 124.937,320.167 125.003 C 320.076 125.134,317.976 125.678,317.389 125.723 C 317.190 125.738,316.971 125.806,316.903 125.875 C 316.696 126.081,314.333 126.025,314.333 125.814 C 314.333 125.708,314.185 125.667,313.989 125.718 C 313.799 125.768,313.405 125.736,313.114 125.648 C 312.822 125.560,312.321 125.407,312.000 125.310 C 311.131 125.045,309.667 124.315,309.667 124.147 C 309.667 124.066,309.573 124.000,309.458 124.000 C 309.269 124.000,308.848 123.685,307.917 122.847 C 307.384 122.368,307.019 121.870,307.125 121.764 C 307.178 121.711,307.133 121.667,307.024 121.667 C 306.914 121.667,306.754 121.479,306.667 121.250 C 306.580 121.021,306.437 120.833,306.351 120.833 C 306.264 120.833,306.069 120.458,305.917 120.000 C 305.764 119.542,305.580 119.167,305.506 119.167 C 305.433 119.167,305.283 118.811,305.174 118.377 C 305.065 117.943,304.903 117.543,304.815 117.489 C 304.279 117.157,304.268 109.863,304.803 109.513 C 304.885 109.460,305.045 109.023,305.159 108.542 C 305.273 108.060,305.428 107.667,305.503 107.667 C 305.579 107.667,305.687 107.452,305.745 107.189 C 305.803 106.927,305.986 106.566,306.152 106.387 C 306.319 106.208,306.546 105.892,306.657 105.685 C 306.912 105.208,307.321 104.692,307.750 104.305 C 308.974 103.199,309.393 102.908,310.583 102.333 C 311.317 101.979,312.273 101.639,312.708 101.576 C 313.144 101.513,313.500 101.396,313.500 101.314 C 313.500 101.126,317.713 101.119,317.925 101.307 " stroke="none" fill="#3b433c" fill-rule="evenodd"></path><path id="path1" d="M30.333 17.982 C 30.333 18.267,30.268 18.500,30.188 18.500 C 30.108 18.500,30.040 18.969,30.036 19.542 C 30.025 21.117,29.814 23.500,29.686 23.500 C 29.623 23.500,29.602 24.025,29.638 24.667 C 29.681 25.429,29.642 25.833,29.525 25.833 C 29.405 25.833,29.379 26.191,29.447 26.913 C 29.509 27.575,29.480 28.074,29.372 28.204 C 29.275 28.321,29.207 28.898,29.221 29.487 C 29.235 30.080,29.171 30.582,29.078 30.613 C 28.978 30.646,28.936 31.170,28.973 31.918 C 29.011 32.662,28.971 33.167,28.874 33.167 C 28.776 33.167,28.744 33.622,28.793 34.311 C 28.842 34.993,28.807 35.497,28.706 35.559 C 28.606 35.621,28.573 36.094,28.623 36.725 C 28.679 37.419,28.644 37.828,28.521 37.904 C 28.066 38.185,28.340 38.500,29.042 38.503 C 29.431 38.505,30.462 38.616,31.333 38.750 C 33.475 39.080,33.500 39.078,33.500 38.583 C 33.500 38.354,33.566 38.167,33.646 38.167 C 33.727 38.167,33.755 37.839,33.710 37.438 C 33.664 37.030,33.703 36.664,33.798 36.605 C 33.892 36.547,33.930 36.212,33.882 35.855 C 33.830 35.469,33.870 35.164,33.981 35.095 C 34.083 35.032,34.167 34.610,34.167 34.157 C 34.167 33.704,34.231 33.333,34.309 33.333 C 34.387 33.333,34.415 32.958,34.371 32.500 C 34.317 31.941,34.353 31.667,34.481 31.667 C 34.609 31.667,34.636 31.450,34.564 31.001 C 34.504 30.626,34.532 30.244,34.628 30.126 C 34.721 30.011,34.788 29.585,34.776 29.180 C 34.764 28.775,34.836 28.416,34.935 28.383 C 35.048 28.345,35.087 28.010,35.037 27.494 C 34.989 26.998,35.025 26.667,35.125 26.667 C 35.224 26.667,35.259 26.369,35.210 25.938 C 35.165 25.538,35.203 25.164,35.294 25.108 C 35.385 25.051,35.423 24.676,35.377 24.274 C 35.327 23.830,35.368 23.498,35.481 23.429 C 35.583 23.365,35.667 22.981,35.667 22.573 C 35.667 22.166,35.743 21.833,35.835 21.833 C 35.938 21.833,35.963 21.577,35.898 21.173 C 35.840 20.810,35.849 20.379,35.919 20.215 C 35.988 20.051,36.028 19.625,36.008 19.269 C 35.986 18.880,36.058 18.567,36.189 18.486 C 36.574 18.248,36.266 18.170,33.902 17.905 C 32.627 17.762,31.302 17.605,30.958 17.555 C 30.351 17.468,30.333 17.480,30.333 17.982 M16.583 18.083 C 15.850 18.196,14.738 18.392,14.112 18.518 L 12.975 18.748 13.090 19.249 C 13.154 19.524,13.222 19.900,13.241 20.083 C 13.260 20.267,13.335 20.548,13.406 20.709 C 13.477 20.869,13.489 21.188,13.431 21.417 C 13.374 21.646,13.399 21.833,13.487 21.833 C 13.575 21.833,13.698 22.358,13.761 23.000 C 13.825 23.642,13.951 24.167,14.042 24.167 C 14.137 24.167,14.166 24.378,14.110 24.660 C 14.054 24.941,14.088 25.202,14.190 25.265 C 14.293 25.328,14.331 25.617,14.279 25.938 C 14.226 26.266,14.258 26.500,14.356 26.500 C 14.449 26.500,14.503 26.706,14.477 26.958 C 14.451 27.211,14.497 27.527,14.580 27.662 C 14.664 27.797,14.716 28.116,14.697 28.370 C 14.677 28.625,14.746 28.833,14.850 28.833 C 14.964 28.833,15.009 29.030,14.964 29.333 C 14.924 29.608,14.961 29.833,15.046 29.833 C 15.132 29.833,15.173 30.133,15.138 30.500 C 15.103 30.867,15.125 31.167,15.186 31.167 C 15.322 31.167,15.521 32.223,15.523 32.958 C 15.523 33.256,15.599 33.500,15.691 33.500 C 15.783 33.500,15.842 33.706,15.822 33.958 C 15.802 34.210,15.842 34.549,15.912 34.711 C 15.981 34.873,16.002 35.192,15.959 35.419 C 15.915 35.647,15.944 35.833,16.023 35.833 C 16.102 35.833,16.167 36.096,16.167 36.417 C 16.167 36.739,16.251 37.000,16.355 37.000 C 16.477 37.000,16.510 37.205,16.449 37.583 C 16.391 37.939,16.422 38.167,16.529 38.167 C 16.630 38.167,16.675 38.412,16.635 38.750 C 16.598 39.071,16.608 39.332,16.658 39.330 C 17.095 39.316,20.300 38.805,20.896 38.654 C 21.710 38.449,22.021 38.010,21.659 37.574 C 21.539 37.429,21.495 37.095,21.551 36.752 C 21.602 36.433,21.575 36.129,21.489 36.077 C 21.252 35.930,21.298 34.834,21.542 34.828 C 21.669 34.825,21.636 34.737,21.458 34.601 C 21.263 34.453,21.167 34.152,21.167 33.690 C 21.167 33.288,21.088 33.000,20.978 33.000 C 20.854 33.000,20.819 32.746,20.875 32.250 C 20.925 31.802,20.892 31.500,20.791 31.500 C 20.691 31.500,20.657 31.198,20.708 30.750 C 20.754 30.337,20.734 30.000,20.662 30.000 C 20.544 30.000,20.408 29.194,20.269 27.667 C 20.240 27.346,20.159 26.950,20.088 26.787 C 20.018 26.623,20.003 26.278,20.055 26.019 C 20.106 25.760,20.069 25.469,19.972 25.372 C 19.875 25.275,19.825 24.889,19.861 24.514 C 19.896 24.140,19.867 23.833,19.796 23.833 C 19.725 23.833,19.667 23.500,19.667 23.093 C 19.667 22.686,19.583 22.301,19.481 22.238 C 19.370 22.170,19.330 21.864,19.382 21.478 C 19.434 21.089,19.400 20.833,19.296 20.833 C 19.190 20.833,19.156 20.544,19.208 20.083 C 19.257 19.648,19.224 19.333,19.129 19.333 C 19.039 19.333,18.993 19.002,19.026 18.583 L 19.086 17.833 18.501 17.855 C 18.180 17.867,17.317 17.970,16.583 18.083 M21.583 50.754 C 12.834 51.800,4.444 56.618,3.338 61.232 C 2.690 63.933,5.516 67.331,10.667 70.044 C 21.521 75.762,36.715 74.360,45.250 66.853 C 48.704 63.815,48.781 60.379,45.461 57.412 C 39.747 52.306,30.399 49.700,21.583 50.754 M19.000 58.927 C 19.412 59.050,20.387 59.381,21.167 59.664 C 21.946 59.947,22.958 60.292,23.417 60.430 C 23.875 60.568,24.400 60.751,24.583 60.835 C 24.933 60.996,25.638 61.240,28.917 62.337 C 30.017 62.705,31.029 63.053,31.167 63.111 C 31.304 63.169,32.242 63.500,33.250 63.848 C 35.284 64.549,35.389 64.686,34.417 65.370 C 29.222 69.024,20.231 68.628,15.827 64.550 C 13.737 62.616,13.935 60.912,16.470 59.007 C 17.252 58.419,17.397 58.367,17.799 58.526 C 18.047 58.624,18.587 58.805,19.000 58.927 " stroke="none" fill="#edf2ed" fill-rule="evenodd"></path><path id="path2" d="M30.000 17.290 C 30.000 17.360,30.354 17.440,30.787 17.467 C 31.220 17.495,31.538 17.487,31.495 17.449 C 31.337 17.309,30.000 17.167,30.000 17.290 M15.500 18.000 C 14.935 18.119,14.932 18.123,15.417 18.128 C 15.692 18.131,16.104 18.073,16.333 18.000 C 16.880 17.825,16.331 17.825,15.500 18.000 M32.125 39.118 C 32.331 39.157,32.669 39.157,32.875 39.118 C 33.081 39.078,32.912 39.045,32.500 39.045 C 32.087 39.045,31.919 39.078,32.125 39.118 M23.542 50.448 C 23.702 50.490,23.965 50.490,24.125 50.448 C 24.285 50.406,24.154 50.372,23.833 50.372 C 23.512 50.372,23.381 50.406,23.542 50.448 M27.127 50.451 C 27.334 50.491,27.634 50.490,27.794 50.448 C 27.953 50.406,27.783 50.374,27.417 50.375 C 27.050 50.377,26.920 50.411,27.127 50.451 M45.583 57.500 C 46.035 57.958,46.442 58.333,46.487 58.333 C 46.533 58.333,46.201 57.958,45.750 57.500 C 45.299 57.042,44.892 56.667,44.846 56.667 C 44.800 56.667,45.132 57.042,45.583 57.500 M15.573 59.875 L 15.083 60.417 15.625 59.927 C 15.923 59.658,16.167 59.414,16.167 59.385 C 16.167 59.257,16.029 59.370,15.573 59.875 M50.916 61.958 C 50.917 64.279,49.571 66.512,46.752 68.864 L 45.500 69.909 45.500 76.687 C 45.500 83.117,45.482 83.524,45.147 84.607 C 42.837 92.093,28.219 98.482,16.583 97.091 C 15.483 96.960,14.152 96.800,13.625 96.737 C 13.090 96.672,12.667 96.686,12.667 96.769 C 12.667 96.957,15.821 97.951,16.875 98.096 C 17.310 98.156,17.667 98.262,17.667 98.332 C 17.667 98.563,20.206 98.862,22.973 98.955 C 24.730 99.015,25.720 99.113,25.766 99.232 C 25.847 99.443,27.500 99.380,27.500 99.166 C 27.500 99.092,28.231 98.984,29.125 98.927 C 31.124 98.799,33.286 98.520,33.647 98.343 C 33.795 98.271,34.517 98.060,35.250 97.876 C 37.156 97.397,38.570 96.958,38.668 96.816 C 38.715 96.748,38.978 96.640,39.252 96.575 C 39.526 96.509,40.087 96.285,40.500 96.076 C 40.912 95.867,41.438 95.614,41.667 95.514 C 42.596 95.106,44.592 93.935,44.717 93.725 C 44.790 93.601,44.929 93.500,45.026 93.500 C 45.123 93.500,45.486 93.275,45.833 93.000 C 46.181 92.725,46.508 92.500,46.560 92.500 C 46.772 92.500,49.330 89.830,49.773 89.147 C 50.034 88.746,50.295 88.379,50.353 88.333 C 50.411 88.287,50.674 87.725,50.938 87.083 L 51.417 85.917 51.417 74.000 C 51.417 63.031,51.344 60.500,51.031 60.500 C 50.967 60.500,50.916 61.156,50.916 61.958 M24.667 61.139 C 24.804 61.224,25.104 61.343,25.333 61.404 C 25.623 61.482,25.674 61.469,25.500 61.361 C 25.363 61.276,25.063 61.157,24.833 61.096 C 24.544 61.018,24.493 61.031,24.667 61.139 M29.000 62.596 C 29.000 62.709,29.866 63.023,29.948 62.941 C 29.986 62.903,29.788 62.792,29.509 62.695 C 29.229 62.597,29.000 62.553,29.000 62.596 M15.660 64.208 C 16.068 64.644,16.425 65.000,16.451 65.000 C 16.577 65.000,16.444 64.850,15.708 64.160 L 14.917 63.417 15.660 64.208 M33.333 64.096 C 33.333 64.209,34.199 64.523,34.282 64.441 C 34.319 64.403,34.122 64.292,33.842 64.195 C 33.562 64.097,33.333 64.053,33.333 64.096 M17.667 65.741 C 17.667 65.787,17.892 65.941,18.167 66.083 C 18.442 66.226,18.667 66.304,18.667 66.259 C 18.667 66.213,18.442 66.059,18.167 65.917 C 17.892 65.774,17.667 65.696,17.667 65.741 M45.740 66.542 L 45.250 67.083 45.792 66.594 C 46.297 66.138,46.410 66.000,46.281 66.000 C 46.252 66.000,46.009 66.244,45.740 66.542 M23.250 67.667 C 23.924 67.816,25.114 67.886,24.986 67.771 C 24.948 67.736,24.392 67.666,23.750 67.614 C 22.853 67.542,22.738 67.555,23.250 67.667 M26.458 67.784 C 26.665 67.824,27.002 67.824,27.208 67.784 C 27.415 67.745,27.246 67.712,26.833 67.712 C 26.421 67.712,26.252 67.745,26.458 67.784 M24.714 73.790 C 25.245 73.823,26.070 73.823,26.548 73.789 C 27.026 73.756,26.592 73.729,25.583 73.729 C 24.575 73.729,24.184 73.757,24.714 73.790 M262.078 106.083 C 262.078 111.308,262.099 113.422,262.125 110.780 C 262.151 108.138,262.151 103.863,262.125 101.280 C 262.099 98.697,262.078 100.858,262.078 106.083 M93.721 100.083 C 93.722 100.725,93.752 100.967,93.788 100.621 C 93.824 100.275,93.824 99.750,93.787 99.455 C 93.750 99.159,93.721 99.442,93.721 100.083 M262.065 128.333 C 262.065 129.571,262.092 130.077,262.124 129.458 C 262.156 128.840,262.156 127.827,262.124 127.208 C 262.092 126.590,262.065 127.096,262.065 128.333 " stroke="none" fill="#64646c" fill-rule="evenodd"></path><path id="path3" d="M34.708 17.948 C 34.869 17.990,35.131 17.990,35.292 17.948 C 35.452 17.906,35.321 17.872,35.000 17.872 C 34.679 17.872,34.548 17.906,34.708 17.948 M19.111 18.111 C 18.938 18.284,18.980 18.833,19.167 18.833 C 19.258 18.833,19.333 18.646,19.333 18.417 C 19.333 17.980,19.295 17.927,19.111 18.111 M12.875 18.610 C 12.639 18.706,12.588 19.167,12.814 19.167 C 12.895 19.167,13.000 19.017,13.048 18.833 C 13.096 18.650,13.124 18.506,13.109 18.513 C 13.095 18.520,12.990 18.564,12.875 18.610 M29.879 19.667 C 29.879 20.079,29.911 20.248,29.951 20.042 C 29.991 19.835,29.991 19.498,29.951 19.292 C 29.911 19.085,29.879 19.254,29.879 19.667 M12.920 20.018 C 13.016 20.516,13.167 20.630,13.167 20.204 C 13.167 20.011,13.096 19.809,13.009 19.755 C 12.921 19.701,12.882 19.818,12.920 20.018 M29.500 22.083 C 29.500 22.404,29.575 22.667,29.667 22.667 C 29.758 22.667,29.833 22.404,29.833 22.083 C 29.833 21.762,29.758 21.500,29.667 21.500 C 29.575 21.500,29.500 21.762,29.500 22.083 M35.667 22.677 C 35.667 22.974,35.736 23.143,35.833 23.083 C 35.925 23.027,36.000 22.797,36.000 22.573 C 36.000 22.350,35.925 22.167,35.833 22.167 C 35.742 22.167,35.667 22.396,35.667 22.677 M19.667 23.073 C 19.667 23.308,19.742 23.500,19.833 23.500 C 19.925 23.500,20.000 23.354,20.000 23.177 C 20.000 22.999,19.925 22.807,19.833 22.750 C 19.739 22.692,19.667 22.832,19.667 23.073 M13.500 23.573 C 13.500 23.706,13.575 23.860,13.667 23.917 C 13.758 23.973,13.833 23.865,13.833 23.677 C 13.833 23.488,13.758 23.333,13.667 23.333 C 13.575 23.333,13.500 23.441,13.500 23.573 M29.379 24.500 C 29.379 24.912,29.411 25.081,29.451 24.875 C 29.491 24.669,29.491 24.331,29.451 24.125 C 29.411 23.919,29.379 24.087,29.379 24.500 M35.539 24.333 C 35.539 24.654,35.573 24.785,35.615 24.625 C 35.657 24.465,35.657 24.202,35.615 24.042 C 35.573 23.881,35.539 24.012,35.539 24.333 M19.917 24.332 C 19.861 24.423,19.892 24.629,19.986 24.790 C 20.132 25.042,20.157 25.018,20.162 24.625 C 20.167 24.146,20.090 24.053,19.917 24.332 M29.212 27.000 C 29.212 27.412,29.245 27.581,29.284 27.375 C 29.324 27.169,29.324 26.831,29.284 26.625 C 29.245 26.419,29.212 26.587,29.212 27.000 M14.167 27.083 C 14.167 27.221,14.242 27.333,14.333 27.333 C 14.425 27.333,14.500 27.221,14.500 27.083 C 14.500 26.946,14.425 26.833,14.333 26.833 C 14.242 26.833,14.167 26.946,14.167 27.083 M20.333 27.593 C 20.333 27.828,20.401 27.978,20.484 27.926 C 20.567 27.875,20.596 27.683,20.548 27.500 C 20.428 27.041,20.333 27.082,20.333 27.593 M35.000 27.583 C 35.000 27.813,35.075 28.000,35.167 28.000 C 35.258 28.000,35.333 27.813,35.333 27.583 C 35.333 27.354,35.258 27.167,35.167 27.167 C 35.075 27.167,35.000 27.354,35.000 27.583 M14.333 28.240 C 14.333 28.372,14.408 28.527,14.500 28.583 C 14.592 28.640,14.667 28.532,14.667 28.343 C 14.667 28.154,14.592 28.000,14.500 28.000 C 14.408 28.000,14.333 28.108,14.333 28.240 M20.500 29.073 C 20.500 29.308,20.575 29.500,20.667 29.500 C 20.758 29.500,20.833 29.354,20.833 29.177 C 20.833 28.999,20.758 28.807,20.667 28.750 C 20.572 28.692,20.500 28.832,20.500 29.073 M28.982 28.792 C 28.883 29.470,28.899 30.000,29.020 30.000 C 29.100 30.000,29.167 29.700,29.167 29.333 C 29.167 28.768,29.040 28.396,28.982 28.792 M34.833 29.278 C 34.833 29.522,34.885 29.671,34.948 29.608 C 35.115 29.440,35.134 28.833,34.972 28.833 C 34.896 28.833,34.833 29.033,34.833 29.278 M20.872 30.667 C 20.872 30.988,20.906 31.119,20.948 30.958 C 20.990 30.798,20.990 30.535,20.948 30.375 C 20.906 30.215,20.872 30.346,20.872 30.667 M28.667 31.750 C 28.667 32.071,28.742 32.333,28.833 32.333 C 28.925 32.333,29.000 32.071,29.000 31.750 C 29.000 31.429,28.925 31.167,28.833 31.167 C 28.742 31.167,28.667 31.429,28.667 31.750 M15.000 31.740 C 15.000 31.872,15.075 32.027,15.167 32.083 C 15.258 32.140,15.333 32.032,15.333 31.843 C 15.333 31.654,15.258 31.500,15.167 31.500 C 15.075 31.500,15.000 31.608,15.000 31.740 M21.039 32.167 C 21.039 32.487,21.073 32.619,21.115 32.458 C 21.157 32.298,21.157 32.035,21.115 31.875 C 21.073 31.715,21.039 31.846,21.039 32.167 M34.450 32.390 C 34.403 32.513,34.431 32.719,34.513 32.848 C 34.621 33.019,34.662 32.959,34.664 32.625 C 34.667 32.127,34.585 32.038,34.450 32.390 M21.167 33.667 C 21.167 33.971,21.236 34.144,21.333 34.083 C 21.425 34.027,21.500 33.839,21.500 33.667 C 21.500 33.494,21.425 33.307,21.333 33.250 C 21.236 33.190,21.167 33.363,21.167 33.667 M28.545 34.333 C 28.545 34.746,28.578 34.915,28.618 34.708 C 28.657 34.502,28.657 34.165,28.618 33.958 C 28.578 33.752,28.545 33.921,28.545 34.333 M34.169 34.292 C 34.171 34.649,34.207 34.695,34.333 34.500 C 34.544 34.174,34.544 33.833,34.333 33.833 C 34.242 33.833,34.168 34.040,34.169 34.292 M15.667 35.333 C 15.667 35.644,15.711 35.689,15.867 35.533 C 16.022 35.378,16.022 35.289,15.867 35.133 C 15.711 34.978,15.667 35.022,15.667 35.333 M21.333 35.240 C 21.333 35.372,21.408 35.527,21.500 35.583 C 21.592 35.640,21.667 35.532,21.667 35.343 C 21.667 35.154,21.592 35.000,21.500 35.000 C 21.408 35.000,21.333 35.108,21.333 35.240 M34.039 35.833 C 34.039 36.154,34.073 36.285,34.115 36.125 C 34.157 35.965,34.157 35.702,34.115 35.542 C 34.073 35.381,34.039 35.512,34.039 35.833 M28.379 36.667 C 28.379 37.079,28.411 37.248,28.451 37.042 C 28.491 36.835,28.491 36.498,28.451 36.292 C 28.411 36.085,28.379 36.254,28.379 36.667 M15.833 36.407 C 15.833 36.539,15.908 36.693,16.000 36.750 C 16.092 36.807,16.167 36.699,16.167 36.510 C 16.167 36.321,16.092 36.167,16.000 36.167 C 15.908 36.167,15.833 36.275,15.833 36.407 M33.872 37.500 C 33.872 37.821,33.906 37.952,33.948 37.792 C 33.990 37.631,33.990 37.369,33.948 37.208 C 33.906 37.048,33.872 37.179,33.872 37.500 M33.353 38.939 C 33.154 39.165,33.163 39.192,33.423 39.141 C 33.587 39.109,33.754 38.990,33.792 38.875 C 33.888 38.587,33.632 38.625,33.353 38.939 M15.167 63.885 C 15.167 63.914,15.410 64.158,15.708 64.427 L 16.250 64.917 15.760 64.375 C 15.304 63.870,15.167 63.757,15.167 63.885 M5.000 66.052 C 5.000 66.081,5.244 66.325,5.542 66.594 L 6.083 67.083 5.594 66.542 C 5.138 66.037,5.000 65.923,5.000 66.052 " stroke="none" fill="#9ca597" fill-rule="evenodd"></path><path id="path4" d="M30.096 17.883 C 30.021 18.139,30.006 18.395,30.063 18.452 C 30.250 18.639,30.360 18.373,30.295 17.890 L 30.231 17.417 30.096 17.883 M18.375 17.782 C 18.535 17.823,18.798 17.823,18.958 17.782 C 19.119 17.740,18.987 17.705,18.667 17.705 C 18.346 17.705,18.215 17.740,18.375 17.782 M32.377 17.786 C 32.631 17.825,33.006 17.824,33.211 17.784 C 33.416 17.744,33.208 17.713,32.750 17.714 C 32.292 17.716,32.124 17.748,32.377 17.786 M13.583 18.500 C 13.134 18.614,13.126 18.628,13.500 18.630 C 13.729 18.632,14.104 18.573,14.333 18.500 C 14.894 18.321,14.288 18.321,13.583 18.500 M36.000 19.194 C 36.000 20.013,36.079 19.990,36.235 19.125 C 36.307 18.729,36.285 18.500,36.174 18.500 C 36.078 18.500,36.000 18.813,36.000 19.194 M19.000 19.083 C 19.000 19.221,19.075 19.333,19.167 19.333 C 19.258 19.333,19.333 19.221,19.333 19.083 C 19.333 18.946,19.258 18.833,19.167 18.833 C 19.075 18.833,19.000 18.946,19.000 19.083 M12.868 19.537 C 12.888 19.778,12.957 19.943,13.021 19.904 C 13.086 19.864,13.181 19.925,13.234 20.041 C 13.287 20.156,13.285 20.063,13.230 19.833 C 13.083 19.224,12.824 19.012,12.868 19.537 M30.028 19.521 C 30.013 19.761,29.960 20.211,29.912 20.521 C 29.832 21.036,29.839 21.049,30.003 20.672 C 30.102 20.446,30.154 19.996,30.119 19.672 C 30.074 19.247,30.048 19.205,30.028 19.521 M19.183 20.208 C 19.174 20.552,19.242 20.833,19.333 20.833 C 19.524 20.833,19.524 20.596,19.333 20.000 C 19.214 19.628,19.198 19.651,19.183 20.208 M35.958 20.096 C 35.890 20.165,35.836 20.416,35.838 20.653 C 35.843 21.031,35.865 21.047,36.016 20.786 C 36.206 20.460,36.159 19.894,35.958 20.096 M13.178 20.698 C 13.207 21.227,13.476 21.606,13.488 21.135 C 13.495 20.888,13.425 20.640,13.333 20.583 C 13.242 20.527,13.172 20.579,13.178 20.698 M19.350 21.615 C 19.341 21.908,19.408 22.193,19.500 22.250 C 19.692 22.368,19.692 22.098,19.500 21.500 C 19.373 21.102,19.366 21.107,19.350 21.615 M13.455 22.542 C 13.548 23.268,13.612 23.443,13.739 23.316 C 13.859 23.197,13.633 21.833,13.494 21.833 C 13.423 21.833,13.406 22.152,13.455 22.542 M29.500 23.083 C 29.500 23.313,29.575 23.500,29.667 23.500 C 29.758 23.500,29.833 23.313,29.833 23.083 C 29.833 22.854,29.758 22.667,29.667 22.667 C 29.575 22.667,29.500 22.854,29.500 23.083 M35.444 23.444 C 35.383 23.506,35.341 23.824,35.350 24.153 L 35.367 24.750 35.519 24.100 C 35.673 23.445,35.649 23.239,35.444 23.444 M29.467 24.744 C 29.402 25.291,29.384 25.773,29.425 25.814 C 29.610 25.999,29.681 25.631,29.634 24.727 L 29.583 23.750 29.467 24.744 M19.836 24.948 C 19.834 25.149,19.908 25.360,20.000 25.417 C 20.212 25.548,20.212 25.162,20.000 24.833 C 19.869 24.630,19.838 24.652,19.836 24.948 M35.278 25.111 C 35.217 25.172,35.174 25.491,35.183 25.819 L 35.200 26.417 35.353 25.767 C 35.506 25.112,35.483 24.906,35.278 25.111 M14.012 25.365 C 14.040 25.893,14.309 26.272,14.322 25.802 C 14.328 25.555,14.258 25.307,14.167 25.250 C 14.075 25.193,14.005 25.245,14.012 25.365 M20.017 26.282 C 20.007 26.574,20.075 26.860,20.167 26.917 C 20.358 27.035,20.358 26.765,20.167 26.167 C 20.039 25.769,20.032 25.774,20.017 26.282 M29.363 26.854 C 29.347 27.095,29.286 27.545,29.228 27.854 C 29.147 28.285,29.169 28.373,29.321 28.232 C 29.442 28.119,29.495 27.726,29.457 27.232 C 29.422 26.783,29.380 26.614,29.363 26.854 M35.000 26.917 C 35.000 27.054,35.075 27.167,35.167 27.167 C 35.258 27.167,35.333 27.054,35.333 26.917 C 35.333 26.779,35.258 26.667,35.167 26.667 C 35.075 26.667,35.000 26.779,35.000 26.917 M20.189 27.676 C 20.177 27.911,20.277 28.249,20.411 28.426 C 20.645 28.736,20.656 28.730,20.661 28.282 C 20.664 28.024,20.597 27.857,20.512 27.909 C 20.427 27.962,20.325 27.835,20.285 27.627 C 20.217 27.277,20.210 27.281,20.189 27.676 M14.333 27.732 C 14.333 27.860,14.448 28.008,14.587 28.062 C 14.794 28.141,14.809 28.098,14.665 27.830 C 14.458 27.443,14.333 27.407,14.333 27.732 M34.760 28.770 C 34.700 29.010,34.692 29.247,34.742 29.297 C 34.792 29.348,34.833 29.264,34.833 29.111 C 34.833 28.958,34.908 28.833,35.000 28.833 C 35.092 28.833,35.167 28.721,35.167 28.583 C 35.167 28.169,34.877 28.302,34.760 28.770 M14.678 28.958 C 14.724 29.447,14.977 29.719,14.988 29.292 C 14.995 29.040,14.925 28.833,14.833 28.833 C 14.742 28.833,14.672 28.890,14.678 28.958 M29.167 29.639 C 29.167 29.837,29.092 30.000,29.000 30.000 C 28.908 30.000,28.833 30.150,28.833 30.333 C 28.833 30.517,28.900 30.667,28.981 30.667 C 29.153 30.667,29.402 29.513,29.261 29.372 C 29.209 29.320,29.167 29.440,29.167 29.639 M20.500 29.750 C 20.500 29.887,20.575 30.000,20.667 30.000 C 20.758 30.000,20.833 29.887,20.833 29.750 C 20.833 29.613,20.758 29.500,20.667 29.500 C 20.575 29.500,20.500 29.613,20.500 29.750 M14.850 30.042 C 14.906 30.746,15.134 31.063,15.150 30.458 C 15.159 30.115,15.092 29.833,15.000 29.833 C 14.908 29.833,14.841 29.927,14.850 30.042 M34.611 30.111 C 34.550 30.172,34.507 30.453,34.515 30.736 L 34.530 31.250 34.691 30.690 C 34.852 30.130,34.821 29.902,34.611 30.111 M20.667 30.889 C 20.667 31.225,20.740 31.500,20.829 31.500 C 20.923 31.500,20.948 31.270,20.889 30.958 C 20.744 30.199,20.667 30.175,20.667 30.889 M34.336 32.125 C 34.338 32.482,34.374 32.528,34.500 32.333 C 34.711 32.007,34.711 31.667,34.500 31.667 C 34.408 31.667,34.334 31.873,34.336 32.125 M20.833 32.389 C 20.833 32.725,20.906 33.000,20.996 33.000 C 21.089 33.000,21.114 32.770,21.055 32.458 C 20.911 31.699,20.833 31.675,20.833 32.389 M15.338 32.333 C 15.338 32.471,15.411 32.696,15.500 32.833 C 15.644 33.056,15.662 33.056,15.662 32.833 C 15.662 32.696,15.589 32.471,15.500 32.333 C 15.356 32.111,15.338 32.111,15.338 32.333 M28.667 32.750 C 28.667 32.979,28.742 33.167,28.833 33.167 C 28.925 33.167,29.000 32.979,29.000 32.750 C 29.000 32.521,28.925 32.333,28.833 32.333 C 28.742 32.333,28.667 32.521,28.667 32.750 M34.167 33.583 C 34.167 33.721,34.242 33.833,34.333 33.833 C 34.425 33.833,34.500 33.721,34.500 33.583 C 34.500 33.446,34.425 33.333,34.333 33.333 C 34.242 33.333,34.167 33.446,34.167 33.583 M15.512 33.625 C 15.558 34.114,15.811 34.386,15.822 33.958 C 15.828 33.706,15.758 33.500,15.667 33.500 C 15.575 33.500,15.505 33.556,15.512 33.625 M28.697 34.104 C 28.681 34.391,28.619 34.878,28.561 35.188 C 28.481 35.618,28.502 35.707,28.654 35.565 C 28.777 35.451,28.829 35.038,28.790 34.482 C 28.756 33.988,28.714 33.818,28.697 34.104 M15.667 34.730 C 15.667 34.868,15.742 35.027,15.833 35.083 C 15.925 35.140,16.000 35.074,16.000 34.936 C 16.000 34.799,15.925 34.640,15.833 34.583 C 15.742 34.527,15.667 34.593,15.667 34.730 M33.944 35.111 C 33.883 35.172,33.841 35.453,33.850 35.736 L 33.867 36.250 34.004 35.668 C 34.147 35.061,34.132 34.923,33.944 35.111 M21.333 35.730 C 21.333 35.868,21.408 36.027,21.500 36.083 C 21.592 36.140,21.667 36.074,21.667 35.936 C 21.667 35.799,21.592 35.640,21.500 35.583 C 21.408 35.527,21.333 35.593,21.333 35.730 M28.530 36.521 C 28.514 36.761,28.453 37.211,28.395 37.521 C 28.314 37.952,28.336 38.040,28.488 37.898 C 28.609 37.786,28.662 37.393,28.623 36.898 C 28.589 36.450,28.547 36.280,28.530 36.521 M21.517 36.948 C 21.507 37.241,21.575 37.527,21.667 37.583 C 21.858 37.702,21.858 37.432,21.667 36.833 C 21.539 36.435,21.532 36.441,21.517 36.948 M33.778 36.611 C 33.717 36.672,33.674 36.991,33.683 37.319 L 33.700 37.917 33.853 37.267 C 34.006 36.612,33.983 36.406,33.778 36.611 M16.178 37.125 C 16.224 37.614,16.477 37.886,16.488 37.458 C 16.495 37.206,16.425 37.000,16.333 37.000 C 16.242 37.000,16.172 37.056,16.178 37.125 M16.437 38.625 C 16.594 39.279,16.667 39.301,16.667 38.694 C 16.667 38.404,16.590 38.167,16.497 38.167 C 16.396 38.167,16.372 38.353,16.437 38.625 M21.680 38.275 C 21.673 38.381,21.385 38.547,21.042 38.646 L 20.417 38.825 21.083 38.731 C 21.855 38.622,21.898 38.596,21.781 38.302 C 21.727 38.168,21.688 38.158,21.680 38.275 M33.500 38.417 C 33.500 38.554,33.575 38.667,33.667 38.667 C 33.758 38.667,33.833 38.554,33.833 38.417 C 33.833 38.279,33.758 38.167,33.667 38.167 C 33.575 38.167,33.500 38.279,33.500 38.417 M29.294 38.618 C 29.501 38.658,29.801 38.656,29.960 38.615 C 30.120 38.573,29.950 38.540,29.583 38.542 C 29.217 38.544,29.086 38.578,29.294 38.618 M30.542 38.782 C 30.702 38.823,30.965 38.823,31.125 38.782 C 31.285 38.740,31.154 38.705,30.833 38.705 C 30.512 38.705,30.381 38.740,30.542 38.782 M25.121 50.454 C 25.417 50.490,25.942 50.491,26.288 50.455 C 26.634 50.419,26.392 50.389,25.750 50.388 C 25.108 50.387,24.825 50.417,25.121 50.454 M22.458 50.618 C 22.665 50.657,23.002 50.657,23.208 50.618 C 23.415 50.578,23.246 50.545,22.833 50.545 C 22.421 50.545,22.252 50.578,22.458 50.618 M27.958 50.618 C 28.165 50.657,28.502 50.657,28.708 50.618 C 28.915 50.578,28.746 50.545,28.333 50.545 C 27.921 50.545,27.752 50.578,27.958 50.618 M5.491 57.625 L 4.917 58.250 5.542 57.676 C 5.885 57.360,6.167 57.078,6.167 57.051 C 6.167 56.923,6.026 57.043,5.491 57.625 M30.333 62.889 C 30.333 62.932,30.575 63.052,30.871 63.155 C 31.167 63.258,31.336 63.274,31.246 63.190 C 31.056 63.012,30.333 62.774,30.333 62.889 M24.300 73.624 C 25.060 73.655,26.260 73.655,26.966 73.624 C 27.672 73.593,27.050 73.567,25.583 73.567 C 24.117 73.568,23.539 73.593,24.300 73.624 " stroke="none" fill="#a4a4a4" fill-rule="evenodd"></path></g></svg>